<mxfile host="Electron" agent="Mozilla/5.0 (Macintosh; Intel Mac OS X 10_15_7) AppleWebKit/537.36 (KHTML, like Gecko) draw.io/26.0.4 Chrome/128.0.6613.186 Electron/32.2.5 Safari/537.36" version="26.0.4">
  <diagram name="Page-1" id="FpZKjetpdCJ-AFjR0xAb">
    <mxGraphModel dx="1574" dy="1556" grid="0" gridSize="10" guides="1" tooltips="1" connect="1" arrows="1" fold="1" page="0" pageScale="1" pageWidth="850" pageHeight="1100" math="0" shadow="0">
      <root>
        <mxCell id="0" />
        <mxCell id="1" parent="0" />
        <mxCell id="Fg7xQOFJATX9pM12aSYz-3" style="edgeStyle=orthogonalEdgeStyle;rounded=0;orthogonalLoop=1;jettySize=auto;html=1;entryX=0;entryY=0.5;entryDx=0;entryDy=0;" parent="1" source="Fg7xQOFJATX9pM12aSYz-2" target="Fg7xQOFJATX9pM12aSYz-7" edge="1">
          <mxGeometry relative="1" as="geometry">
            <mxPoint x="137" y="1106" as="targetPoint" />
          </mxGeometry>
        </mxCell>
        <mxCell id="Fg7xQOFJATX9pM12aSYz-8" value="" style="edgeStyle=orthogonalEdgeStyle;rounded=0;orthogonalLoop=1;jettySize=auto;html=1;exitX=0.875;exitY=0.5;exitDx=0;exitDy=0;exitPerimeter=0;" parent="1" source="Fg7xQOFJATX9pM12aSYz-2" target="Fg7xQOFJATX9pM12aSYz-7" edge="1">
          <mxGeometry relative="1" as="geometry" />
        </mxCell>
        <mxCell id="Fg7xQOFJATX9pM12aSYz-2" value="Main" style="ellipse;shape=cloud;whiteSpace=wrap;html=1;" parent="1" vertex="1">
          <mxGeometry x="-45" y="1066" width="120" height="80" as="geometry" />
        </mxCell>
        <mxCell id="Fg7xQOFJATX9pM12aSYz-5" value="Functions" style="rhombus;whiteSpace=wrap;html=1;" parent="1" vertex="1">
          <mxGeometry x="-183" y="787.5" width="80" height="80" as="geometry" />
        </mxCell>
        <mxCell id="Fg7xQOFJATX9pM12aSYz-6" value="Screens" style="rounded=0;whiteSpace=wrap;html=1;" parent="1" vertex="1">
          <mxGeometry x="-78" y="797.5" width="120" height="60" as="geometry" />
        </mxCell>
        <mxCell id="Fg7xQOFJATX9pM12aSYz-10" value="" style="edgeStyle=orthogonalEdgeStyle;rounded=0;orthogonalLoop=1;jettySize=auto;html=1;" parent="1" source="Fg7xQOFJATX9pM12aSYz-7" target="Fg7xQOFJATX9pM12aSYz-9" edge="1">
          <mxGeometry relative="1" as="geometry">
            <Array as="points">
              <mxPoint x="206" y="1253" />
            </Array>
          </mxGeometry>
        </mxCell>
        <mxCell id="Fg7xQOFJATX9pM12aSYz-12" value="" style="edgeStyle=orthogonalEdgeStyle;rounded=0;orthogonalLoop=1;jettySize=auto;html=1;" parent="1" source="Fg7xQOFJATX9pM12aSYz-7" edge="1">
          <mxGeometry relative="1" as="geometry">
            <mxPoint x="310" y="1018" as="targetPoint" />
            <Array as="points">
              <mxPoint x="206" y="1018" />
            </Array>
          </mxGeometry>
        </mxCell>
        <mxCell id="Fg7xQOFJATX9pM12aSYz-7" value="isSignedLogic" style="rhombus;whiteSpace=wrap;html=1;" parent="1" vertex="1">
          <mxGeometry x="146" y="1078" width="119" height="56" as="geometry" />
        </mxCell>
        <mxCell id="Fg7xQOFJATX9pM12aSYz-17" value="Login" style="edgeStyle=orthogonalEdgeStyle;rounded=0;orthogonalLoop=1;jettySize=auto;html=1;exitX=0.5;exitY=0;exitDx=0;exitDy=0;entryX=0.5;entryY=1;entryDx=0;entryDy=0;" parent="1" edge="1">
          <mxGeometry relative="1" as="geometry">
            <mxPoint x="325" y="1224" as="sourcePoint" />
            <mxPoint x="325" y="1048" as="targetPoint" />
          </mxGeometry>
        </mxCell>
        <mxCell id="Fg7xQOFJATX9pM12aSYz-19" value="" style="edgeStyle=orthogonalEdgeStyle;rounded=0;orthogonalLoop=1;jettySize=auto;html=1;" parent="1" target="Fg7xQOFJATX9pM12aSYz-18" edge="1">
          <mxGeometry relative="1" as="geometry">
            <mxPoint x="429" y="1253.5" as="sourcePoint" />
            <mxPoint x="430" y="1167" as="targetPoint" />
            <Array as="points">
              <mxPoint x="430" y="1254" />
            </Array>
          </mxGeometry>
        </mxCell>
        <mxCell id="Fg7xQOFJATX9pM12aSYz-9" value="signUpLogin" style="whiteSpace=wrap;html=1;" parent="1" vertex="1">
          <mxGeometry x="310" y="1224" width="120" height="59" as="geometry" />
        </mxCell>
        <mxCell id="Fg7xQOFJATX9pM12aSYz-39" style="edgeStyle=orthogonalEdgeStyle;rounded=0;orthogonalLoop=1;jettySize=auto;html=1;exitX=0.25;exitY=0;exitDx=0;exitDy=0;" parent="1" source="Fg7xQOFJATX9pM12aSYz-18" target="Fg7xQOFJATX9pM12aSYz-37" edge="1">
          <mxGeometry relative="1" as="geometry" />
        </mxCell>
        <mxCell id="Fg7xQOFJATX9pM12aSYz-18" value="Sign up 2" style="whiteSpace=wrap;html=1;" parent="1" vertex="1">
          <mxGeometry x="350" y="1106" width="120" height="60" as="geometry" />
        </mxCell>
        <mxCell id="Fg7xQOFJATX9pM12aSYz-27" value="" style="shape=curlyBracket;whiteSpace=wrap;html=1;rounded=1;labelPosition=left;verticalLabelPosition=middle;align=right;verticalAlign=middle;" parent="1" vertex="1">
          <mxGeometry x="581" y="-595" width="20" height="3037" as="geometry" />
        </mxCell>
        <mxCell id="Fg7xQOFJATX9pM12aSYz-28" value="Common" style="text;html=1;align=center;verticalAlign=middle;resizable=0;points=[];autosize=1;strokeColor=none;fillColor=none;" parent="1" vertex="1">
          <mxGeometry x="642" y="-108" width="67" height="26" as="geometry" />
        </mxCell>
        <mxCell id="Fg7xQOFJATX9pM12aSYz-29" value="" style="shape=curlyBracket;whiteSpace=wrap;html=1;rounded=1;labelPosition=left;verticalLabelPosition=middle;align=right;verticalAlign=middle;" parent="1" vertex="1">
          <mxGeometry x="709" y="-214" width="20" height="230" as="geometry" />
        </mxCell>
        <mxCell id="Fg7xQOFJATX9pM12aSYz-82" style="edgeStyle=orthogonalEdgeStyle;rounded=0;orthogonalLoop=1;jettySize=auto;html=1;exitX=0.5;exitY=0;exitDx=0;exitDy=0;entryX=0;entryY=0.5;entryDx=0;entryDy=0;" parent="1" source="Fg7xQOFJATX9pM12aSYz-34" target="Fg7xQOFJATX9pM12aSYz-49" edge="1">
          <mxGeometry relative="1" as="geometry" />
        </mxCell>
        <mxCell id="Fg7xQOFJATX9pM12aSYz-34" value="homePage" style="whiteSpace=wrap;html=1;" parent="1" vertex="1">
          <mxGeometry x="729" y="-198" width="68" height="25" as="geometry" />
        </mxCell>
        <mxCell id="Fg7xQOFJATX9pM12aSYz-84" value="" style="edgeStyle=orthogonalEdgeStyle;rounded=0;orthogonalLoop=1;jettySize=auto;html=1;entryX=0.5;entryY=1;entryDx=0;entryDy=0;strokeColor=#FF0000;" parent="1" target="Fg7xQOFJATX9pM12aSYz-83" edge="1">
          <mxGeometry relative="1" as="geometry">
            <mxPoint x="815" y="-35.51999999999998" as="sourcePoint" />
            <mxPoint x="886" y="-56.99499999999989" as="targetPoint" />
            <Array as="points">
              <mxPoint x="815" y="-143" />
              <mxPoint x="886" y="-143" />
            </Array>
          </mxGeometry>
        </mxCell>
        <mxCell id="Fg7xQOFJATX9pM12aSYz-85" value="&lt;span style=&quot;color: rgb(255, 0, 0);&quot;&gt;if other&#39;s&lt;/span&gt;" style="edgeLabel;html=1;align=center;verticalAlign=middle;resizable=0;points=[];" parent="Fg7xQOFJATX9pM12aSYz-84" vertex="1" connectable="0">
          <mxGeometry x="-0.2037" y="1" relative="1" as="geometry">
            <mxPoint x="31" as="offset" />
          </mxGeometry>
        </mxCell>
        <mxCell id="Fg7xQOFJATX9pM12aSYz-102" style="edgeStyle=orthogonalEdgeStyle;rounded=0;orthogonalLoop=1;jettySize=auto;html=1;exitX=1;exitY=0.25;exitDx=0;exitDy=0;entryX=0.5;entryY=1;entryDx=0;entryDy=0;" parent="1" source="Fg7xQOFJATX9pM12aSYz-35" target="Fg7xQOFJATX9pM12aSYz-86" edge="1">
          <mxGeometry relative="1" as="geometry">
            <Array as="points">
              <mxPoint x="815" y="-116" />
              <mxPoint x="1102" y="-116" />
            </Array>
          </mxGeometry>
        </mxCell>
        <mxCell id="Fg7xQOFJATX9pM12aSYz-103" value="if own&#39;s" style="edgeLabel;html=1;align=center;verticalAlign=middle;resizable=0;points=[];" parent="Fg7xQOFJATX9pM12aSYz-102" vertex="1" connectable="0">
          <mxGeometry x="-0.377" y="2" relative="1" as="geometry">
            <mxPoint x="19" y="3" as="offset" />
          </mxGeometry>
        </mxCell>
        <mxCell id="Fg7xQOFJATX9pM12aSYz-106" style="edgeStyle=orthogonalEdgeStyle;rounded=0;orthogonalLoop=1;jettySize=auto;html=1;exitX=1;exitY=0.5;exitDx=0;exitDy=0;entryX=0;entryY=0.5;entryDx=0;entryDy=0;strokeColor=#FF0000;" parent="1" source="Fg7xQOFJATX9pM12aSYz-35" target="Fg7xQOFJATX9pM12aSYz-101" edge="1">
          <mxGeometry relative="1" as="geometry">
            <Array as="points">
              <mxPoint x="815" y="-89" />
            </Array>
          </mxGeometry>
        </mxCell>
        <mxCell id="Fg7xQOFJATX9pM12aSYz-112" style="edgeStyle=orthogonalEdgeStyle;rounded=0;orthogonalLoop=1;jettySize=auto;html=1;exitX=1;exitY=0.75;exitDx=0;exitDy=0;entryX=0;entryY=0.5;entryDx=0;entryDy=0;" parent="1" source="Fg7xQOFJATX9pM12aSYz-35" target="Fg7xQOFJATX9pM12aSYz-91" edge="1">
          <mxGeometry relative="1" as="geometry">
            <Array as="points">
              <mxPoint x="815" y="-52" />
            </Array>
          </mxGeometry>
        </mxCell>
        <mxCell id="Fg7xQOFJATX9pM12aSYz-115" style="edgeStyle=orthogonalEdgeStyle;rounded=0;orthogonalLoop=1;jettySize=auto;html=1;exitX=1;exitY=0.25;exitDx=0;exitDy=0;entryX=0.5;entryY=1;entryDx=0;entryDy=0;strokeColor=#FF0000;fontColor=#FF0000;" parent="1" target="Fg7xQOFJATX9pM12aSYz-113" edge="1">
          <mxGeometry relative="1" as="geometry">
            <mxPoint x="815" y="-116" as="sourcePoint" />
            <mxPoint x="1070" y="-200" as="targetPoint" />
            <Array as="points">
              <mxPoint x="815" y="-102" />
              <mxPoint x="1181" y="-102" />
            </Array>
          </mxGeometry>
        </mxCell>
        <mxCell id="Fg7xQOFJATX9pM12aSYz-116" value="&lt;span style=&quot;color: rgb(255, 0, 0);&quot;&gt;if own&#39;s&lt;/span&gt;" style="edgeLabel;html=1;align=center;verticalAlign=middle;resizable=0;points=[];" parent="Fg7xQOFJATX9pM12aSYz-115" vertex="1" connectable="0">
          <mxGeometry x="0.0119" y="-1" relative="1" as="geometry">
            <mxPoint y="-2" as="offset" />
          </mxGeometry>
        </mxCell>
        <mxCell id="zVWvyCh1IwH-hkvZZhtE-74" style="edgeStyle=orthogonalEdgeStyle;rounded=0;orthogonalLoop=1;jettySize=auto;html=1;exitX=1;exitY=0.25;exitDx=0;exitDy=0;entryX=0.5;entryY=1;entryDx=0;entryDy=0;strokeColor=#FF0000;" parent="1" source="Fg7xQOFJATX9pM12aSYz-35" target="zVWvyCh1IwH-hkvZZhtE-73" edge="1">
          <mxGeometry relative="1" as="geometry">
            <Array as="points">
              <mxPoint x="815" y="-129" />
              <mxPoint x="994" y="-129" />
            </Array>
          </mxGeometry>
        </mxCell>
        <mxCell id="zVWvyCh1IwH-hkvZZhtE-75" value="if other&#39;s &amp;amp;&lt;div&gt;loggedUser isHost&lt;/div&gt;" style="edgeLabel;html=1;align=center;verticalAlign=middle;resizable=0;points=[];fontColor=#FF0000;" parent="zVWvyCh1IwH-hkvZZhtE-74" vertex="1" connectable="0">
          <mxGeometry x="0.546" relative="1" as="geometry">
            <mxPoint y="-12" as="offset" />
          </mxGeometry>
        </mxCell>
        <mxCell id="ZIhOdMBr0xCIAdMKxZGc-16" style="edgeStyle=orthogonalEdgeStyle;rounded=0;orthogonalLoop=1;jettySize=auto;html=1;exitX=0.5;exitY=1;exitDx=0;exitDy=0;entryX=0.5;entryY=0;entryDx=0;entryDy=0;strokeColor=#FF0000;" edge="1" parent="1" source="Fg7xQOFJATX9pM12aSYz-35" target="ZIhOdMBr0xCIAdMKxZGc-15">
          <mxGeometry relative="1" as="geometry" />
        </mxCell>
        <mxCell id="Fg7xQOFJATX9pM12aSYz-35" value="Profile (own)" style="whiteSpace=wrap;html=1;fillColor=#dae8fc;strokeColor=#6c8ebf;" parent="1" vertex="1">
          <mxGeometry x="729" y="-153" width="86" height="154" as="geometry" />
        </mxCell>
        <mxCell id="kimw8rgIVEwlr4Ktqzji-2" value="" style="edgeStyle=orthogonalEdgeStyle;rounded=0;orthogonalLoop=1;jettySize=auto;html=1;strokeColor=#FF0000;" parent="1" source="Fg7xQOFJATX9pM12aSYz-36" target="kimw8rgIVEwlr4Ktqzji-1" edge="1">
          <mxGeometry relative="1" as="geometry" />
        </mxCell>
        <mxCell id="kimw8rgIVEwlr4Ktqzji-7" style="edgeStyle=orthogonalEdgeStyle;rounded=0;orthogonalLoop=1;jettySize=auto;html=1;exitX=0.5;exitY=1;exitDx=0;exitDy=0;entryX=0;entryY=0.5;entryDx=0;entryDy=0;strokeColor=#FF0000;" parent="1" source="Fg7xQOFJATX9pM12aSYz-36" target="kimw8rgIVEwlr4Ktqzji-6" edge="1">
          <mxGeometry relative="1" as="geometry" />
        </mxCell>
        <mxCell id="Fg7xQOFJATX9pM12aSYz-36" value="Social" style="whiteSpace=wrap;html=1;strokeColor=#FF0000;fontColor=#FF0000;" parent="1" vertex="1">
          <mxGeometry x="731.7500000000001" y="2028" width="86" height="86" as="geometry" />
        </mxCell>
        <mxCell id="lHXLa5IbPs3UxYePCbIo-11" style="edgeStyle=orthogonalEdgeStyle;rounded=0;orthogonalLoop=1;jettySize=auto;html=1;exitX=1;exitY=0.5;exitDx=0;exitDy=0;" parent="1" source="Fg7xQOFJATX9pM12aSYz-37" target="Fg7xQOFJATX9pM12aSYz-27" edge="1">
          <mxGeometry relative="1" as="geometry" />
        </mxCell>
        <mxCell id="Fg7xQOFJATX9pM12aSYz-37" value="basePage" style="rhombus;whiteSpace=wrap;html=1;" parent="1" vertex="1">
          <mxGeometry x="310" y="978" width="80" height="80" as="geometry" />
        </mxCell>
        <mxCell id="Fg7xQOFJATX9pM12aSYz-41" value="isHost" style="text;html=1;align=center;verticalAlign=middle;resizable=0;points=[];autosize=1;strokeColor=none;fillColor=none;" parent="1" vertex="1">
          <mxGeometry x="636" y="937.75" width="51" height="26" as="geometry" />
        </mxCell>
        <mxCell id="Fg7xQOFJATX9pM12aSYz-42" value="" style="shape=curlyBracket;whiteSpace=wrap;html=1;rounded=1;labelPosition=left;verticalLabelPosition=middle;align=right;verticalAlign=middle;" parent="1" vertex="1">
          <mxGeometry x="687" y="470" width="20" height="965.5" as="geometry" />
        </mxCell>
        <mxCell id="Fg7xQOFJATX9pM12aSYz-43" value="createEvent" style="whiteSpace=wrap;html=1;" parent="1" vertex="1">
          <mxGeometry x="715" y="1314" width="76" height="25" as="geometry" />
        </mxCell>
        <mxCell id="zVWvyCh1IwH-hkvZZhtE-9" value="" style="edgeStyle=orthogonalEdgeStyle;rounded=0;orthogonalLoop=1;jettySize=auto;html=1;" parent="1" source="Fg7xQOFJATX9pM12aSYz-44" target="zVWvyCh1IwH-hkvZZhtE-8" edge="1">
          <mxGeometry relative="1" as="geometry" />
        </mxCell>
        <mxCell id="Fg7xQOFJATX9pM12aSYz-44" value="selectEventForAction" style="whiteSpace=wrap;html=1;" parent="1" vertex="1">
          <mxGeometry x="709" y="790.75" width="127" height="121.5" as="geometry" />
        </mxCell>
        <mxCell id="Fg7xQOFJATX9pM12aSYz-48" value="Widget" style="ellipse;whiteSpace=wrap;html=1;" parent="1" vertex="1">
          <mxGeometry x="67" y="797.5" width="120" height="61" as="geometry" />
        </mxCell>
        <mxCell id="Fg7xQOFJATX9pM12aSYz-52" value="" style="edgeStyle=orthogonalEdgeStyle;rounded=0;orthogonalLoop=1;jettySize=auto;html=1;" parent="1" source="Fg7xQOFJATX9pM12aSYz-49" target="Fg7xQOFJATX9pM12aSYz-51" edge="1">
          <mxGeometry relative="1" as="geometry" />
        </mxCell>
        <mxCell id="Fg7xQOFJATX9pM12aSYz-74" style="edgeStyle=orthogonalEdgeStyle;rounded=0;orthogonalLoop=1;jettySize=auto;html=1;exitX=0.5;exitY=0;exitDx=0;exitDy=0;entryX=0.5;entryY=0;entryDx=0;entryDy=0;" parent="1" source="Fg7xQOFJATX9pM12aSYz-49" target="Fg7xQOFJATX9pM12aSYz-72" edge="1">
          <mxGeometry relative="1" as="geometry" />
        </mxCell>
        <mxCell id="Fg7xQOFJATX9pM12aSYz-49" value="eventCard" style="ellipse;whiteSpace=wrap;html=1;fillColor=#ffe6cc;strokeColor=#d79b00;" parent="1" vertex="1">
          <mxGeometry x="842" y="-509.62" width="80" height="36.25" as="geometry" />
        </mxCell>
        <mxCell id="Fg7xQOFJATX9pM12aSYz-54" value="" style="edgeStyle=orthogonalEdgeStyle;rounded=0;orthogonalLoop=1;jettySize=auto;html=1;" parent="1" source="Fg7xQOFJATX9pM12aSYz-51" target="Fg7xQOFJATX9pM12aSYz-53" edge="1">
          <mxGeometry relative="1" as="geometry" />
        </mxCell>
        <mxCell id="Fg7xQOFJATX9pM12aSYz-105" value="if in buying time&lt;div&gt;(and not your event)&lt;/div&gt;" style="edgeLabel;html=1;align=center;verticalAlign=middle;resizable=0;points=[];fontColor=#FF0000;" parent="Fg7xQOFJATX9pM12aSYz-54" vertex="1" connectable="0">
          <mxGeometry x="-0.418" relative="1" as="geometry">
            <mxPoint x="26" as="offset" />
          </mxGeometry>
        </mxCell>
        <mxCell id="Fg7xQOFJATX9pM12aSYz-77" style="edgeStyle=orthogonalEdgeStyle;rounded=0;orthogonalLoop=1;jettySize=auto;html=1;exitX=0.5;exitY=0;exitDx=0;exitDy=0;entryX=0.5;entryY=0;entryDx=0;entryDy=0;" parent="1" target="Fg7xQOFJATX9pM12aSYz-81" edge="1">
          <mxGeometry relative="1" as="geometry">
            <mxPoint x="1027.01" y="-512.5" as="sourcePoint" />
            <mxPoint x="973.01" y="-594" as="targetPoint" />
            <Array as="points">
              <mxPoint x="1006" y="-512" />
              <mxPoint x="1006" y="-553" />
              <mxPoint x="974" y="-553" />
            </Array>
          </mxGeometry>
        </mxCell>
        <mxCell id="Fg7xQOFJATX9pM12aSYz-80" style="edgeStyle=orthogonalEdgeStyle;rounded=0;orthogonalLoop=1;jettySize=auto;html=1;exitX=0.75;exitY=0;exitDx=0;exitDy=0;entryX=0.5;entryY=1;entryDx=0;entryDy=0;fontColor=#FF0000;strokeColor=#FF0000;" parent="1" source="Fg7xQOFJATX9pM12aSYz-51" target="Fg7xQOFJATX9pM12aSYz-79" edge="1">
          <mxGeometry relative="1" as="geometry" />
        </mxCell>
        <mxCell id="Fg7xQOFJATX9pM12aSYz-51" value="Event Details" style="whiteSpace=wrap;html=1;" parent="1" vertex="1">
          <mxGeometry x="982" y="-512.5" width="89" height="40.5" as="geometry" />
        </mxCell>
        <mxCell id="Fg7xQOFJATX9pM12aSYz-56" value="" style="edgeStyle=orthogonalEdgeStyle;rounded=0;orthogonalLoop=1;jettySize=auto;html=1;entryX=0;entryY=0.5;entryDx=0;entryDy=0;strokeColor=#FF0000;" parent="1" source="Fg7xQOFJATX9pM12aSYz-53" target="Fg7xQOFJATX9pM12aSYz-58" edge="1">
          <mxGeometry relative="1" as="geometry">
            <mxPoint x="1430" y="-490.31500000000005" as="targetPoint" />
          </mxGeometry>
        </mxCell>
        <mxCell id="Fg7xQOFJATX9pM12aSYz-53" value="Buy ticket&lt;div&gt;&lt;span style=&quot;color: rgb(255, 0, 0);&quot;&gt;Buy wristbands&lt;/span&gt;&lt;/div&gt;" style="whiteSpace=wrap;html=1;" parent="1" vertex="1">
          <mxGeometry x="1264" y="-510.94000000000005" width="96.5" height="41.25" as="geometry" />
        </mxCell>
        <mxCell id="Fg7xQOFJATX9pM12aSYz-60" value="" style="edgeStyle=orthogonalEdgeStyle;rounded=0;orthogonalLoop=1;jettySize=auto;html=1;entryX=0;entryY=0.5;entryDx=0;entryDy=0;strokeColor=#FF0000;" parent="1" source="Fg7xQOFJATX9pM12aSYz-58" target="Fg7xQOFJATX9pM12aSYz-61" edge="1">
          <mxGeometry relative="1" as="geometry">
            <mxPoint x="1586" y="-490.2762068965517" as="targetPoint" />
          </mxGeometry>
        </mxCell>
        <mxCell id="Fg7xQOFJATX9pM12aSYz-58" value="&lt;span style=&quot;color: rgb(255, 0, 0);&quot;&gt;Wristband&lt;/span&gt;" style="ellipse;whiteSpace=wrap;html=1;strokeColor=#FF0000;fillColor=#FFFF00;" parent="1" vertex="1">
          <mxGeometry x="1425" y="-517.44" width="94" height="54.25" as="geometry" />
        </mxCell>
        <mxCell id="Fg7xQOFJATX9pM12aSYz-63" value="" style="edgeStyle=orthogonalEdgeStyle;rounded=0;orthogonalLoop=1;jettySize=auto;html=1;fontColor=#FF0000;strokeColor=#FF0000;" parent="1" source="Fg7xQOFJATX9pM12aSYz-61" target="Fg7xQOFJATX9pM12aSYz-62" edge="1">
          <mxGeometry relative="1" as="geometry" />
        </mxCell>
        <mxCell id="zVWvyCh1IwH-hkvZZhtE-145" value="if not creating event" style="edgeLabel;html=1;align=center;verticalAlign=middle;resizable=0;points=[];fontColor=#FF0000;" parent="Fg7xQOFJATX9pM12aSYz-63" vertex="1" connectable="0">
          <mxGeometry x="-0.1956" y="1" relative="1" as="geometry">
            <mxPoint x="11" as="offset" />
          </mxGeometry>
        </mxCell>
        <mxCell id="zVWvyCh1IwH-hkvZZhtE-147" style="edgeStyle=orthogonalEdgeStyle;rounded=0;orthogonalLoop=1;jettySize=auto;html=1;exitX=0.5;exitY=0;exitDx=0;exitDy=0;entryX=0.5;entryY=1;entryDx=0;entryDy=0;fontColor=#FF3333;strokeColor=#FF0000;" parent="1" source="Fg7xQOFJATX9pM12aSYz-61" target="zVWvyCh1IwH-hkvZZhtE-146" edge="1">
          <mxGeometry relative="1" as="geometry" />
        </mxCell>
        <mxCell id="zVWvyCh1IwH-hkvZZhtE-148" value="if creating event" style="edgeLabel;html=1;align=center;verticalAlign=middle;resizable=0;points=[];fontColor=#FF3333;" parent="zVWvyCh1IwH-hkvZZhtE-147" vertex="1" connectable="0">
          <mxGeometry x="-0.1412" relative="1" as="geometry">
            <mxPoint as="offset" />
          </mxGeometry>
        </mxCell>
        <mxCell id="Fg7xQOFJATX9pM12aSYz-61" value="&lt;span style=&quot;color: rgb(255, 0, 0);&quot;&gt;wristband details&lt;/span&gt;" style="whiteSpace=wrap;html=1;strokeColor=#FF0000;" parent="1" vertex="1">
          <mxGeometry x="1597" y="-507.30999999999995" width="112" height="33.12" as="geometry" />
        </mxCell>
        <mxCell id="Fg7xQOFJATX9pM12aSYz-67" value="" style="edgeStyle=orthogonalEdgeStyle;rounded=0;orthogonalLoop=1;jettySize=auto;html=1;fontColor=#FF0000;strokeColor=#FF0000;" parent="1" source="Fg7xQOFJATX9pM12aSYz-62" target="Fg7xQOFJATX9pM12aSYz-66" edge="1">
          <mxGeometry relative="1" as="geometry" />
        </mxCell>
        <mxCell id="Fg7xQOFJATX9pM12aSYz-62" value="&lt;span style=&quot;&quot;&gt;Buy now&lt;/span&gt;" style="whiteSpace=wrap;html=1;strokeColor=#FF0000;fontColor=#FF0000;" parent="1" vertex="1">
          <mxGeometry x="1858" y="-508.28" width="120" height="35.06" as="geometry" />
        </mxCell>
        <mxCell id="Fg7xQOFJATX9pM12aSYz-64" value="List of" style="text;html=1;align=center;verticalAlign=middle;resizable=0;points=[];autosize=1;strokeColor=none;fillColor=none;fontColor=#FF0000;" parent="1" vertex="1">
          <mxGeometry x="1396" y="-529" width="50" height="26" as="geometry" />
        </mxCell>
        <mxCell id="Fg7xQOFJATX9pM12aSYz-69" value="" style="edgeStyle=orthogonalEdgeStyle;rounded=0;orthogonalLoop=1;jettySize=auto;html=1;strokeColor=#FF0000;" parent="1" source="Fg7xQOFJATX9pM12aSYz-66" target="Fg7xQOFJATX9pM12aSYz-68" edge="1">
          <mxGeometry relative="1" as="geometry" />
        </mxCell>
        <mxCell id="Fg7xQOFJATX9pM12aSYz-66" value="&lt;span style=&quot;color: rgb(255, 0, 0);&quot;&gt;Third party purchase screen&lt;/span&gt;" style="whiteSpace=wrap;html=1;strokeColor=#FF0000;" parent="1" vertex="1">
          <mxGeometry x="2058" y="-515.78" width="103" height="50.06" as="geometry" />
        </mxCell>
        <mxCell id="Fg7xQOFJATX9pM12aSYz-68" value="Purchase confirmation screen" style="whiteSpace=wrap;html=1;strokeColor=#FF0000;labelBackgroundColor=default;fontColor=#FF0000;" parent="1" vertex="1">
          <mxGeometry x="2232.5" y="-520.75" width="120" height="60" as="geometry" />
        </mxCell>
        <mxCell id="Fg7xQOFJATX9pM12aSYz-72" value="Profile&lt;div&gt;(of eventHost)&lt;/div&gt;" style="whiteSpace=wrap;html=1;fillColor=#dae8fc;strokeColor=#6c8ebf;direction=west;" parent="1" vertex="1">
          <mxGeometry x="801" y="-631" width="84.5" height="37" as="geometry" />
        </mxCell>
        <mxCell id="Fg7xQOFJATX9pM12aSYz-79" value="location Map" style="ellipse;whiteSpace=wrap;html=1;strokeColor=#FF0000;fontColor=#FF0000;" parent="1" vertex="1">
          <mxGeometry x="1041" y="-634" width="101" height="47" as="geometry" />
        </mxCell>
        <mxCell id="Fg7xQOFJATX9pM12aSYz-81" value="Profile&lt;div&gt;(of eventHost)&lt;/div&gt;" style="whiteSpace=wrap;html=1;fillColor=#dae8fc;strokeColor=#6c8ebf;direction=west;" parent="1" vertex="1">
          <mxGeometry x="932" y="-633" width="84.5" height="36" as="geometry" />
        </mxCell>
        <mxCell id="Fg7xQOFJATX9pM12aSYz-83" value="&lt;span style=&quot;color: rgb(255, 0, 0);&quot;&gt;Follow&lt;/span&gt;" style="rhombus;whiteSpace=wrap;html=1;strokeColor=#FF0000;" parent="1" vertex="1">
          <mxGeometry x="846" y="-297" width="80" height="38" as="geometry" />
        </mxCell>
        <mxCell id="Fg7xQOFJATX9pM12aSYz-86" value="editProfile" style="whiteSpace=wrap;html=1;" parent="1" vertex="1">
          <mxGeometry x="1068" y="-237" width="68" height="25" as="geometry" />
        </mxCell>
        <mxCell id="Fg7xQOFJATX9pM12aSYz-91" value="eventCard" style="ellipse;whiteSpace=wrap;html=1;fillColor=#ffe6cc;strokeColor=#d79b00;" parent="1" vertex="1">
          <mxGeometry x="1818" y="-70" width="80" height="36.25" as="geometry" />
        </mxCell>
        <mxCell id="Fg7xQOFJATX9pM12aSYz-95" value="List of user&#39;s events (created or attended)" style="text;html=1;align=center;verticalAlign=middle;whiteSpace=wrap;rounded=0;" parent="1" vertex="1">
          <mxGeometry x="1796.5" y="-113.75" width="123" height="54" as="geometry" />
        </mxCell>
        <mxCell id="Fg7xQOFJATX9pM12aSYz-96" value="&lt;span style=&quot;white-space: nowrap;&quot;&gt;List of&lt;/span&gt;&lt;div&gt;&lt;span style=&quot;white-space: nowrap;&quot;&gt;all events&lt;/span&gt;&lt;/div&gt;" style="text;html=1;align=center;verticalAlign=middle;whiteSpace=wrap;rounded=0;" parent="1" vertex="1">
          <mxGeometry x="801" y="-535" width="58" height="35" as="geometry" />
        </mxCell>
        <mxCell id="Fg7xQOFJATX9pM12aSYz-108" value="" style="edgeStyle=orthogonalEdgeStyle;rounded=0;orthogonalLoop=1;jettySize=auto;html=1;strokeColor=#FF0000;" parent="1" source="Fg7xQOFJATX9pM12aSYz-101" target="Fg7xQOFJATX9pM12aSYz-107" edge="1">
          <mxGeometry relative="1" as="geometry" />
        </mxCell>
        <mxCell id="Fg7xQOFJATX9pM12aSYz-101" value="&lt;span style=&quot;color: rgb(255, 0, 0);&quot;&gt;followers&lt;/span&gt;" style="rounded=0;whiteSpace=wrap;html=1;strokeColor=#FF0000;" parent="1" vertex="1">
          <mxGeometry x="1235" y="-103.75" width="80" height="29.5" as="geometry" />
        </mxCell>
        <mxCell id="Fg7xQOFJATX9pM12aSYz-110" value="" style="edgeStyle=orthogonalEdgeStyle;rounded=0;orthogonalLoop=1;jettySize=auto;html=1;entryX=1;entryY=0.5;entryDx=0;entryDy=0;strokeColor=#FF0000;" parent="1" source="Fg7xQOFJATX9pM12aSYz-107" target="Fg7xQOFJATX9pM12aSYz-111" edge="1">
          <mxGeometry relative="1" as="geometry">
            <mxPoint x="1698" y="-90.38000000000022" as="targetPoint" />
          </mxGeometry>
        </mxCell>
        <mxCell id="kimw8rgIVEwlr4Ktqzji-10" value="&lt;span style=&quot;caret-color: rgb(255, 0, 0); color: rgb(255, 0, 0);&quot;&gt;action = profile&lt;/span&gt;" style="edgeLabel;html=1;align=center;verticalAlign=middle;resizable=0;points=[];" parent="Fg7xQOFJATX9pM12aSYz-110" vertex="1" connectable="0">
          <mxGeometry x="-0.2782" relative="1" as="geometry">
            <mxPoint x="14" as="offset" />
          </mxGeometry>
        </mxCell>
        <mxCell id="Fg7xQOFJATX9pM12aSYz-107" value="&lt;span style=&quot;color: rgb(255, 0, 0);&quot;&gt;simpleUserCard&lt;/span&gt;" style="ellipse;whiteSpace=wrap;html=1;strokeColor=#FF0000;rounded=0;fillColor=#97D077;" parent="1" vertex="1">
          <mxGeometry x="1408" y="-108" width="106" height="38" as="geometry" />
        </mxCell>
        <mxCell id="Fg7xQOFJATX9pM12aSYz-111" value="Profile&lt;div&gt;(of selected follower)&lt;/div&gt;" style="whiteSpace=wrap;html=1;fillColor=#dae8fc;strokeColor=#6c8ebf;direction=west;" parent="1" vertex="1">
          <mxGeometry x="1683" y="-113.75" width="78" height="49.5" as="geometry" />
        </mxCell>
        <mxCell id="Fg7xQOFJATX9pM12aSYz-113" value="&lt;span style=&quot;color: rgb(255, 0, 0);&quot;&gt;settings&lt;/span&gt;" style="whiteSpace=wrap;html=1;strokeColor=#FF0000;" parent="1" vertex="1">
          <mxGeometry x="1147" y="-237" width="68" height="25" as="geometry" />
        </mxCell>
        <mxCell id="Fg7xQOFJATX9pM12aSYz-119" value="Settings elements" style="swimlane;fontStyle=0;childLayout=stackLayout;horizontal=1;startSize=30;horizontalStack=0;resizeParent=1;resizeParentMax=0;resizeLast=0;collapsible=1;marginBottom=0;whiteSpace=wrap;html=1;fontColor=#FF0000;strokeColor=#FF0000;" parent="1" vertex="1">
          <mxGeometry x="1258" y="-397" width="140" height="238" as="geometry" />
        </mxCell>
        <mxCell id="Fg7xQOFJATX9pM12aSYz-120" value="Verify email" style="text;strokeColor=#FF0000;fillColor=none;align=left;verticalAlign=middle;spacingLeft=4;spacingRight=4;overflow=hidden;points=[[0,0.5],[1,0.5]];portConstraint=eastwest;rotatable=0;whiteSpace=wrap;html=1;fontColor=#FF0000;" parent="Fg7xQOFJATX9pM12aSYz-119" vertex="1">
          <mxGeometry y="30" width="140" height="30" as="geometry" />
        </mxCell>
        <mxCell id="Fg7xQOFJATX9pM12aSYz-121" value="Reset password" style="text;strokeColor=#FF0000;fillColor=none;align=left;verticalAlign=middle;spacingLeft=4;spacingRight=4;overflow=hidden;points=[[0,0.5],[1,0.5]];portConstraint=eastwest;rotatable=0;whiteSpace=wrap;html=1;fontColor=#FF0000;" parent="Fg7xQOFJATX9pM12aSYz-119" vertex="1">
          <mxGeometry y="60" width="140" height="30" as="geometry" />
        </mxCell>
        <mxCell id="Fg7xQOFJATX9pM12aSYz-122" value="Delete account" style="text;strokeColor=#FF0000;fillColor=none;align=left;verticalAlign=middle;spacingLeft=4;spacingRight=4;overflow=hidden;points=[[0,0.5],[1,0.5]];portConstraint=eastwest;rotatable=0;whiteSpace=wrap;html=1;fontColor=#FF0000;" parent="Fg7xQOFJATX9pM12aSYz-119" vertex="1">
          <mxGeometry y="90" width="140" height="30" as="geometry" />
        </mxCell>
        <mxCell id="Fg7xQOFJATX9pM12aSYz-123" value="Manage notifications" style="text;strokeColor=#FF0000;fillColor=none;align=left;verticalAlign=middle;spacingLeft=4;spacingRight=4;overflow=hidden;points=[[0,0.5],[1,0.5]];portConstraint=eastwest;rotatable=0;whiteSpace=wrap;html=1;fontColor=#FF0000;" parent="Fg7xQOFJATX9pM12aSYz-119" vertex="1">
          <mxGeometry y="120" width="140" height="30" as="geometry" />
        </mxCell>
        <mxCell id="Fg7xQOFJATX9pM12aSYz-126" value="Black list" style="text;strokeColor=#FF0000;fillColor=none;align=left;verticalAlign=middle;spacingLeft=4;spacingRight=4;overflow=hidden;points=[[0,0.5],[1,0.5]];portConstraint=eastwest;rotatable=0;whiteSpace=wrap;html=1;fontColor=#FF0000;" parent="Fg7xQOFJATX9pM12aSYz-119" vertex="1">
          <mxGeometry y="150" width="140" height="30" as="geometry" />
        </mxCell>
        <mxCell id="Fg7xQOFJATX9pM12aSYz-127" value="Dark theme" style="text;strokeColor=#FF0000;fillColor=none;align=left;verticalAlign=middle;spacingLeft=4;spacingRight=4;overflow=hidden;points=[[0,0.5],[1,0.5]];portConstraint=eastwest;rotatable=0;whiteSpace=wrap;html=1;fontColor=#FF0000;" parent="Fg7xQOFJATX9pM12aSYz-119" vertex="1">
          <mxGeometry y="180" width="140" height="30" as="geometry" />
        </mxCell>
        <mxCell id="Fg7xQOFJATX9pM12aSYz-99" value="&lt;span style=&quot;color: rgb(0, 0, 0);&quot;&gt;Logout&lt;/span&gt;" style="rhombus;whiteSpace=wrap;html=1;fontColor=#FF0000;strokeColor=#000000;" parent="Fg7xQOFJATX9pM12aSYz-119" vertex="1">
          <mxGeometry y="210" width="140" height="28" as="geometry" />
        </mxCell>
        <mxCell id="Fg7xQOFJATX9pM12aSYz-125" value="" style="endArrow=classic;html=1;rounded=0;entryX=-0.019;entryY=0.993;entryDx=0;entryDy=0;entryPerimeter=0;fontColor=#FF0000;strokeColor=#FF0000;" parent="1" target="Fg7xQOFJATX9pM12aSYz-123" edge="1">
          <mxGeometry width="50" height="50" relative="1" as="geometry">
            <mxPoint x="1215" y="-237" as="sourcePoint" />
            <mxPoint x="1265" y="-287" as="targetPoint" />
          </mxGeometry>
        </mxCell>
        <mxCell id="Fg7xQOFJATX9pM12aSYz-128" value="Block users" style="swimlane;fontStyle=0;childLayout=stackLayout;horizontal=1;startSize=30;horizontalStack=0;resizeParent=1;resizeParentMax=0;resizeLast=0;collapsible=1;marginBottom=0;whiteSpace=wrap;html=1;fontColor=#FF0000;strokeColor=#FF0000;" parent="1" vertex="1">
          <mxGeometry x="1398" y="-367" width="140" height="150" as="geometry">
            <mxRectangle x="1222" y="-175" width="130" height="30" as="alternateBounds" />
          </mxGeometry>
        </mxCell>
        <mxCell id="Fg7xQOFJATX9pM12aSYz-129" value="Text size" style="text;strokeColor=#FF0000;fillColor=none;align=left;verticalAlign=middle;spacingLeft=4;spacingRight=4;overflow=hidden;points=[[0,0.5],[1,0.5]];portConstraint=eastwest;rotatable=0;whiteSpace=wrap;html=1;fontColor=#FF0000;" parent="Fg7xQOFJATX9pM12aSYz-128" vertex="1">
          <mxGeometry y="30" width="140" height="30" as="geometry" />
        </mxCell>
        <mxCell id="Fg7xQOFJATX9pM12aSYz-130" value="Report&amp;nbsp;" style="text;strokeColor=#FF0000;fillColor=none;align=left;verticalAlign=middle;spacingLeft=4;spacingRight=4;overflow=hidden;points=[[0,0.5],[1,0.5]];portConstraint=eastwest;rotatable=0;whiteSpace=wrap;html=1;fontColor=#FF0000;" parent="Fg7xQOFJATX9pM12aSYz-128" vertex="1">
          <mxGeometry y="60" width="140" height="30" as="geometry" />
        </mxCell>
        <mxCell id="Fg7xQOFJATX9pM12aSYz-131" value="Access to contacts" style="text;strokeColor=#FF0000;fillColor=none;align=left;verticalAlign=middle;spacingLeft=4;spacingRight=4;overflow=hidden;points=[[0,0.5],[1,0.5]];portConstraint=eastwest;rotatable=0;whiteSpace=wrap;html=1;fontColor=#FF0000;" parent="Fg7xQOFJATX9pM12aSYz-128" vertex="1">
          <mxGeometry y="90" width="140" height="30" as="geometry" />
        </mxCell>
        <mxCell id="Fg7xQOFJATX9pM12aSYz-136" value="" style="text;strokeColor=#FF0000;fillColor=none;align=left;verticalAlign=middle;spacingLeft=4;spacingRight=4;overflow=hidden;points=[[0,0.5],[1,0.5]];portConstraint=eastwest;rotatable=0;whiteSpace=wrap;html=1;fontColor=#FF0000;" parent="Fg7xQOFJATX9pM12aSYz-128" vertex="1">
          <mxGeometry y="120" width="140" height="30" as="geometry" />
        </mxCell>
        <mxCell id="zVWvyCh1IwH-hkvZZhtE-11" value="" style="edgeStyle=orthogonalEdgeStyle;rounded=0;orthogonalLoop=1;jettySize=auto;html=1;entryX=0;entryY=0.5;entryDx=0;entryDy=0;" parent="1" source="zVWvyCh1IwH-hkvZZhtE-8" target="zVWvyCh1IwH-hkvZZhtE-10" edge="1">
          <mxGeometry relative="1" as="geometry">
            <Array as="points">
              <mxPoint x="1138" y="833.25" />
              <mxPoint x="1138" y="784.25" />
              <mxPoint x="1245" y="784.25" />
            </Array>
          </mxGeometry>
        </mxCell>
        <mxCell id="zVWvyCh1IwH-hkvZZhtE-12" value="action = scan" style="edgeLabel;html=1;align=center;verticalAlign=middle;resizable=0;points=[];" parent="zVWvyCh1IwH-hkvZZhtE-11" vertex="1" connectable="0">
          <mxGeometry x="0.2877" y="1" relative="1" as="geometry">
            <mxPoint x="16" y="1" as="offset" />
          </mxGeometry>
        </mxCell>
        <mxCell id="zVWvyCh1IwH-hkvZZhtE-30" value="" style="edgeStyle=orthogonalEdgeStyle;rounded=0;orthogonalLoop=1;jettySize=auto;html=1;" parent="1" source="zVWvyCh1IwH-hkvZZhtE-8" target="zVWvyCh1IwH-hkvZZhtE-29" edge="1">
          <mxGeometry relative="1" as="geometry">
            <Array as="points">
              <mxPoint x="1138" y="870.25" />
              <mxPoint x="1138" y="893.25" />
            </Array>
          </mxGeometry>
        </mxCell>
        <mxCell id="zVWvyCh1IwH-hkvZZhtE-31" value="action = analytics" style="edgeLabel;html=1;align=center;verticalAlign=middle;resizable=0;points=[];" parent="zVWvyCh1IwH-hkvZZhtE-30" vertex="1" connectable="0">
          <mxGeometry x="0.161" relative="1" as="geometry">
            <mxPoint x="13" y="-1" as="offset" />
          </mxGeometry>
        </mxCell>
        <mxCell id="zVWvyCh1IwH-hkvZZhtE-8" value="selectEventCard" style="ellipse;whiteSpace=wrap;html=1;" parent="1" vertex="1">
          <mxGeometry x="996" y="824.88" width="115.5" height="53.25" as="geometry" />
        </mxCell>
        <mxCell id="zVWvyCh1IwH-hkvZZhtE-15" value="" style="edgeStyle=orthogonalEdgeStyle;rounded=0;orthogonalLoop=1;jettySize=auto;html=1;" parent="1" source="zVWvyCh1IwH-hkvZZhtE-10" target="zVWvyCh1IwH-hkvZZhtE-14" edge="1">
          <mxGeometry relative="1" as="geometry" />
        </mxCell>
        <mxCell id="zVWvyCh1IwH-hkvZZhtE-16" value="onQRdetected" style="edgeLabel;html=1;align=center;verticalAlign=middle;resizable=0;points=[];" parent="zVWvyCh1IwH-hkvZZhtE-15" vertex="1" connectable="0">
          <mxGeometry x="-0.1091" y="-1" relative="1" as="geometry">
            <mxPoint y="-1" as="offset" />
          </mxGeometry>
        </mxCell>
        <mxCell id="zVWvyCh1IwH-hkvZZhtE-10" value="Scanner" style="whiteSpace=wrap;html=1;" parent="1" vertex="1">
          <mxGeometry x="1248" y="754.495" width="120" height="60" as="geometry" />
        </mxCell>
        <mxCell id="zVWvyCh1IwH-hkvZZhtE-13" value="List of host previous and/or upcoming events" style="text;html=1;align=center;verticalAlign=middle;whiteSpace=wrap;rounded=0;" parent="1" vertex="1">
          <mxGeometry x="892" y="785.25" width="145" height="56.5" as="geometry" />
        </mxCell>
        <mxCell id="zVWvyCh1IwH-hkvZZhtE-20" value="" style="edgeStyle=orthogonalEdgeStyle;rounded=0;orthogonalLoop=1;jettySize=auto;html=1;entryX=0;entryY=0.414;entryDx=0;entryDy=0;entryPerimeter=0;" parent="1" source="zVWvyCh1IwH-hkvZZhtE-14" target="zVWvyCh1IwH-hkvZZhtE-21" edge="1">
          <mxGeometry relative="1" as="geometry">
            <mxPoint x="1688" y="695.2550000000001" as="targetPoint" />
            <Array as="points">
              <mxPoint x="1668" y="784.25" />
              <mxPoint x="1668" y="695.25" />
            </Array>
          </mxGeometry>
        </mxCell>
        <mxCell id="zVWvyCh1IwH-hkvZZhtE-24" value="" style="edgeStyle=orthogonalEdgeStyle;rounded=0;orthogonalLoop=1;jettySize=auto;html=1;entryX=0;entryY=0.5;entryDx=0;entryDy=0;" parent="1" edge="1">
          <mxGeometry relative="1" as="geometry">
            <mxPoint x="1656" y="784.7521052631578" as="sourcePoint" />
            <mxPoint x="1709" y="865.145" as="targetPoint" />
            <Array as="points">
              <mxPoint x="1669" y="784.25" />
              <mxPoint x="1669" y="865.25" />
            </Array>
          </mxGeometry>
        </mxCell>
        <mxCell id="zVWvyCh1IwH-hkvZZhtE-14" value="checkAccessToEvent&amp;nbsp;" style="whiteSpace=wrap;html=1;" parent="1" vertex="1">
          <mxGeometry x="1509" y="764.37" width="147" height="40.25" as="geometry" />
        </mxCell>
        <mxCell id="zVWvyCh1IwH-hkvZZhtE-26" value="" style="edgeStyle=orthogonalEdgeStyle;rounded=0;orthogonalLoop=1;jettySize=auto;html=1;" parent="1" source="zVWvyCh1IwH-hkvZZhtE-21" target="zVWvyCh1IwH-hkvZZhtE-25" edge="1">
          <mxGeometry relative="1" as="geometry" />
        </mxCell>
        <mxCell id="zVWvyCh1IwH-hkvZZhtE-21" value="AllowGuestIn&lt;div&gt;(button)&lt;/div&gt;" style="ellipse;whiteSpace=wrap;html=1;" parent="1" vertex="1">
          <mxGeometry x="1705" y="671.25" width="98" height="57" as="geometry" />
        </mxCell>
        <mxCell id="zVWvyCh1IwH-hkvZZhtE-28" value="" style="edgeStyle=orthogonalEdgeStyle;rounded=0;orthogonalLoop=1;jettySize=auto;html=1;" parent="1" source="zVWvyCh1IwH-hkvZZhtE-23" target="zVWvyCh1IwH-hkvZZhtE-27" edge="1">
          <mxGeometry relative="1" as="geometry" />
        </mxCell>
        <mxCell id="zVWvyCh1IwH-hkvZZhtE-23" value="DenyGuestIn&lt;div&gt;(button)&lt;/div&gt;" style="ellipse;whiteSpace=wrap;html=1;" parent="1" vertex="1">
          <mxGeometry x="1709" y="841.75" width="97" height="52.64" as="geometry" />
        </mxCell>
        <mxCell id="zVWvyCh1IwH-hkvZZhtE-25" value="allowGuestIn&lt;div&gt;(function)&lt;/div&gt;" style="rhombus;whiteSpace=wrap;html=1;" parent="1" vertex="1">
          <mxGeometry x="1892" y="666" width="114" height="67.5" as="geometry" />
        </mxCell>
        <mxCell id="zVWvyCh1IwH-hkvZZhtE-27" value="denyGuestIn&lt;div&gt;(function)&lt;/div&gt;" style="rhombus;whiteSpace=wrap;html=1;" parent="1" vertex="1">
          <mxGeometry x="1895" y="832.16" width="117.5" height="71.82" as="geometry" />
        </mxCell>
        <mxCell id="zVWvyCh1IwH-hkvZZhtE-29" value="&lt;span style=&quot;color: rgb(255, 0, 0);&quot;&gt;Analytics&lt;/span&gt;" style="whiteSpace=wrap;html=1;strokeColor=#FF0000;" parent="1" vertex="1">
          <mxGeometry x="1252" y="863.25" width="118" height="60" as="geometry" />
        </mxCell>
        <mxCell id="zVWvyCh1IwH-hkvZZhtE-32" value="Analytics of event" style="swimlane;fontStyle=0;childLayout=stackLayout;horizontal=1;startSize=30;horizontalStack=0;resizeParent=1;resizeParentMax=0;resizeLast=0;collapsible=1;marginBottom=0;whiteSpace=wrap;html=1;strokeColor=#FF0000;fontColor=#FF0000;" parent="1" vertex="1">
          <mxGeometry x="1254" y="972.25" width="175" height="360" as="geometry" />
        </mxCell>
        <mxCell id="zVWvyCh1IwH-hkvZZhtE-33" value="Total attendance" style="text;strokeColor=none;fillColor=none;align=left;verticalAlign=middle;spacingLeft=4;spacingRight=4;overflow=hidden;points=[[0,0.5],[1,0.5]];portConstraint=eastwest;rotatable=0;whiteSpace=wrap;html=1;fontColor=#FF0000;" parent="zVWvyCh1IwH-hkvZZhtE-32" vertex="1">
          <mxGeometry y="30" width="175" height="30" as="geometry" />
        </mxCell>
        <mxCell id="zVWvyCh1IwH-hkvZZhtE-34" value="List of attendees by gender (time(s) in)" style="text;strokeColor=none;fillColor=none;align=left;verticalAlign=middle;spacingLeft=4;spacingRight=4;overflow=hidden;points=[[0,0.5],[1,0.5]];portConstraint=eastwest;rotatable=0;whiteSpace=wrap;html=1;fontColor=#FF0000;" parent="zVWvyCh1IwH-hkvZZhtE-32" vertex="1">
          <mxGeometry y="60" width="175" height="30" as="geometry" />
        </mxCell>
        <mxCell id="zVWvyCh1IwH-hkvZZhtE-35" value="Ratio men/women/other" style="text;strokeColor=none;fillColor=none;align=left;verticalAlign=middle;spacingLeft=4;spacingRight=4;overflow=hidden;points=[[0,0.5],[1,0.5]];portConstraint=eastwest;rotatable=0;whiteSpace=wrap;html=1;fontColor=#FF0000;" parent="zVWvyCh1IwH-hkvZZhtE-32" vertex="1">
          <mxGeometry y="90" width="175" height="30" as="geometry" />
        </mxCell>
        <mxCell id="zVWvyCh1IwH-hkvZZhtE-37" value="Academic year of atendees" style="text;strokeColor=none;fillColor=none;align=left;verticalAlign=middle;spacingLeft=4;spacingRight=4;overflow=hidden;points=[[0,0.5],[1,0.5]];portConstraint=eastwest;rotatable=0;whiteSpace=wrap;html=1;fontColor=#FF0000;" parent="zVWvyCh1IwH-hkvZZhtE-32" vertex="1">
          <mxGeometry y="120" width="175" height="30" as="geometry" />
        </mxCell>
        <mxCell id="zVWvyCh1IwH-hkvZZhtE-36" value="First and last scan of user" style="text;strokeColor=none;fillColor=none;align=left;verticalAlign=middle;spacingLeft=4;spacingRight=4;overflow=hidden;points=[[0,0.5],[1,0.5]];portConstraint=eastwest;rotatable=0;whiteSpace=wrap;html=1;fontColor=#FF0000;" parent="zVWvyCh1IwH-hkvZZhtE-32" vertex="1">
          <mxGeometry y="150" width="175" height="30" as="geometry" />
        </mxCell>
        <mxCell id="zVWvyCh1IwH-hkvZZhtE-38" value="Guest to member ratio" style="text;strokeColor=none;fillColor=none;align=left;verticalAlign=middle;spacingLeft=4;spacingRight=4;overflow=hidden;points=[[0,0.5],[1,0.5]];portConstraint=eastwest;rotatable=0;whiteSpace=wrap;html=1;fontColor=#FF0000;" parent="zVWvyCh1IwH-hkvZZhtE-32" vertex="1">
          <mxGeometry y="180" width="175" height="30" as="geometry" />
        </mxCell>
        <mxCell id="zVWvyCh1IwH-hkvZZhtE-40" value="Guests denied in" style="text;strokeColor=none;fillColor=none;align=left;verticalAlign=middle;spacingLeft=4;spacingRight=4;overflow=hidden;points=[[0,0.5],[1,0.5]];portConstraint=eastwest;rotatable=0;whiteSpace=wrap;html=1;fontColor=#FF0000;" parent="zVWvyCh1IwH-hkvZZhtE-32" vertex="1">
          <mxGeometry y="210" width="175" height="30" as="geometry" />
        </mxCell>
        <mxCell id="lHXLa5IbPs3UxYePCbIo-2" value="Capacity utilization" style="text;strokeColor=none;fillColor=none;align=left;verticalAlign=middle;spacingLeft=4;spacingRight=4;overflow=hidden;points=[[0,0.5],[1,0.5]];portConstraint=eastwest;rotatable=0;whiteSpace=wrap;html=1;fontColor=#FF0000;" parent="zVWvyCh1IwH-hkvZZhtE-32" vertex="1">
          <mxGeometry y="240" width="175" height="30" as="geometry" />
        </mxCell>
        <mxCell id="ZIhOdMBr0xCIAdMKxZGc-39" value="Attendance to ticket sold ratio" style="text;strokeColor=none;fillColor=none;align=left;verticalAlign=middle;spacingLeft=4;spacingRight=4;overflow=hidden;points=[[0,0.5],[1,0.5]];portConstraint=eastwest;rotatable=0;whiteSpace=wrap;html=1;fontColor=#FF0000;" vertex="1" parent="zVWvyCh1IwH-hkvZZhtE-32">
          <mxGeometry y="270" width="175" height="30" as="geometry" />
        </mxCell>
        <mxCell id="lHXLa5IbPs3UxYePCbIo-1" value="Revenue" style="text;strokeColor=none;fillColor=none;align=left;verticalAlign=middle;spacingLeft=4;spacingRight=4;overflow=hidden;points=[[0,0.5],[1,0.5]];portConstraint=eastwest;rotatable=0;whiteSpace=wrap;html=1;fontColor=#FF0000;" parent="zVWvyCh1IwH-hkvZZhtE-32" vertex="1">
          <mxGeometry y="300" width="175" height="30" as="geometry" />
        </mxCell>
        <mxCell id="zVWvyCh1IwH-hkvZZhtE-42" value="Life feed of tickets being sold" style="text;strokeColor=none;fillColor=none;align=left;verticalAlign=middle;spacingLeft=4;spacingRight=4;overflow=hidden;points=[[0,0.5],[1,0.5]];portConstraint=eastwest;rotatable=0;whiteSpace=wrap;html=1;fontColor=#FF0000;" parent="zVWvyCh1IwH-hkvZZhtE-32" vertex="1">
          <mxGeometry y="330" width="175" height="30" as="geometry" />
        </mxCell>
        <mxCell id="zVWvyCh1IwH-hkvZZhtE-47" style="edgeStyle=orthogonalEdgeStyle;rounded=0;orthogonalLoop=1;jettySize=auto;html=1;exitX=0.5;exitY=1;exitDx=0;exitDy=0;entryX=0.323;entryY=0.004;entryDx=0;entryDy=0;entryPerimeter=0;strokeColor=#FF0000;" parent="1" source="zVWvyCh1IwH-hkvZZhtE-29" target="zVWvyCh1IwH-hkvZZhtE-32" edge="1">
          <mxGeometry relative="1" as="geometry" />
        </mxCell>
        <mxCell id="zVWvyCh1IwH-hkvZZhtE-51" value="" style="edgeStyle=orthogonalEdgeStyle;rounded=0;orthogonalLoop=1;jettySize=auto;html=1;strokeColor=#FF0000;" parent="1" source="zVWvyCh1IwH-hkvZZhtE-48" target="zVWvyCh1IwH-hkvZZhtE-50" edge="1">
          <mxGeometry relative="1" as="geometry" />
        </mxCell>
        <mxCell id="zVWvyCh1IwH-hkvZZhtE-48" value="Black list button" style="ellipse;whiteSpace=wrap;html=1;fontColor=#FF0000;strokeColor=#FF0000;" parent="1" vertex="1">
          <mxGeometry x="1485" y="1023.25" width="120" height="49" as="geometry" />
        </mxCell>
        <mxCell id="zVWvyCh1IwH-hkvZZhtE-49" style="edgeStyle=orthogonalEdgeStyle;rounded=0;orthogonalLoop=1;jettySize=auto;html=1;exitX=1;exitY=0.5;exitDx=0;exitDy=0;entryX=0;entryY=0.5;entryDx=0;entryDy=0;strokeColor=#FF0000;" parent="1" source="zVWvyCh1IwH-hkvZZhtE-34" target="zVWvyCh1IwH-hkvZZhtE-48" edge="1">
          <mxGeometry relative="1" as="geometry" />
        </mxCell>
        <mxCell id="zVWvyCh1IwH-hkvZZhtE-50" value="Black list form" style="whiteSpace=wrap;html=1;strokeColor=#FF0000;fontColor=#FF0000;fillColor=#CDA2BE;labelBackgroundColor=default;" parent="1" vertex="1">
          <mxGeometry x="1685" y="1017.75" width="120" height="60" as="geometry" />
        </mxCell>
        <mxCell id="zVWvyCh1IwH-hkvZZhtE-60" value="Items on page" style="swimlane;fontStyle=0;childLayout=stackLayout;horizontal=1;startSize=30;horizontalStack=0;resizeParent=1;resizeParentMax=0;resizeLast=0;collapsible=1;marginBottom=0;whiteSpace=wrap;html=1;" parent="1" vertex="1">
          <mxGeometry x="228" y="779.5" width="140" height="120" as="geometry" />
        </mxCell>
        <mxCell id="zVWvyCh1IwH-hkvZZhtE-61" value="Item 1" style="text;strokeColor=none;fillColor=none;align=left;verticalAlign=middle;spacingLeft=4;spacingRight=4;overflow=hidden;points=[[0,0.5],[1,0.5]];portConstraint=eastwest;rotatable=0;whiteSpace=wrap;html=1;" parent="zVWvyCh1IwH-hkvZZhtE-60" vertex="1">
          <mxGeometry y="30" width="140" height="30" as="geometry" />
        </mxCell>
        <mxCell id="zVWvyCh1IwH-hkvZZhtE-62" value="Item 2" style="text;strokeColor=none;fillColor=none;align=left;verticalAlign=middle;spacingLeft=4;spacingRight=4;overflow=hidden;points=[[0,0.5],[1,0.5]];portConstraint=eastwest;rotatable=0;whiteSpace=wrap;html=1;" parent="zVWvyCh1IwH-hkvZZhtE-60" vertex="1">
          <mxGeometry y="60" width="140" height="30" as="geometry" />
        </mxCell>
        <mxCell id="zVWvyCh1IwH-hkvZZhtE-63" value="Item 3" style="text;strokeColor=none;fillColor=none;align=left;verticalAlign=middle;spacingLeft=4;spacingRight=4;overflow=hidden;points=[[0,0.5],[1,0.5]];portConstraint=eastwest;rotatable=0;whiteSpace=wrap;html=1;" parent="zVWvyCh1IwH-hkvZZhtE-60" vertex="1">
          <mxGeometry y="90" width="140" height="30" as="geometry" />
        </mxCell>
        <mxCell id="zVWvyCh1IwH-hkvZZhtE-71" value="" style="edgeStyle=orthogonalEdgeStyle;rounded=0;orthogonalLoop=1;jettySize=auto;html=1;entryX=0;entryY=0.5;entryDx=0;entryDy=0;fontColor=#FF0000;strokeColor=#FF0000;" parent="1" target="zVWvyCh1IwH-hkvZZhtE-72" edge="1">
          <mxGeometry relative="1" as="geometry">
            <mxPoint x="842.0000000000005" y="644.5" as="sourcePoint" />
            <mxPoint x="951" y="644.5" as="targetPoint" />
            <Array as="points" />
          </mxGeometry>
        </mxCell>
        <mxCell id="zVWvyCh1IwH-hkvZZhtE-85" value="" style="edgeStyle=orthogonalEdgeStyle;rounded=0;orthogonalLoop=1;jettySize=auto;html=1;strokeColor=#FF0000;entryX=0;entryY=0.5;entryDx=0;entryDy=0;" parent="1" source="zVWvyCh1IwH-hkvZZhtE-69" target="zVWvyCh1IwH-hkvZZhtE-84" edge="1">
          <mxGeometry relative="1" as="geometry" />
        </mxCell>
        <mxCell id="zVWvyCh1IwH-hkvZZhtE-69" value="blacklistPage" style="whiteSpace=wrap;html=1;fontColor=#FF0000;strokeColor=#FF0000;" parent="1" vertex="1">
          <mxGeometry x="715" y="577.5" width="127" height="86" as="geometry" />
        </mxCell>
        <mxCell id="zVWvyCh1IwH-hkvZZhtE-103" value="" style="edgeStyle=orthogonalEdgeStyle;rounded=0;orthogonalLoop=1;jettySize=auto;html=1;fontColor=#FF0000;strokeColor=#FF0000;" parent="1" source="zVWvyCh1IwH-hkvZZhtE-72" target="zVWvyCh1IwH-hkvZZhtE-102" edge="1">
          <mxGeometry relative="1" as="geometry" />
        </mxCell>
        <mxCell id="kimw8rgIVEwlr4Ktqzji-11" value="&lt;span style=&quot;caret-color: rgb(255, 0, 0); color: rgb(255, 0, 0);&quot;&gt;action = blacklist&lt;/span&gt;" style="edgeLabel;html=1;align=center;verticalAlign=middle;resizable=0;points=[];" parent="zVWvyCh1IwH-hkvZZhtE-103" vertex="1" connectable="0">
          <mxGeometry x="-0.2163" y="1" relative="1" as="geometry">
            <mxPoint x="9" y="1" as="offset" />
          </mxGeometry>
        </mxCell>
        <mxCell id="zVWvyCh1IwH-hkvZZhtE-72" value="&lt;span style=&quot;color: rgb(255, 0, 0);&quot;&gt;simpleUserCard&lt;/span&gt;" style="ellipse;whiteSpace=wrap;html=1;strokeColor=#FF0000;rounded=0;fillColor=#97D077;" parent="1" vertex="1">
          <mxGeometry x="968" y="625.5" width="105" height="38" as="geometry" />
        </mxCell>
        <mxCell id="zVWvyCh1IwH-hkvZZhtE-80" value="" style="edgeStyle=orthogonalEdgeStyle;rounded=0;orthogonalLoop=1;jettySize=auto;html=1;entryX=0.5;entryY=1;entryDx=0;entryDy=0;strokeColor=#FF0000;" parent="1" source="zVWvyCh1IwH-hkvZZhtE-73" target="zVWvyCh1IwH-hkvZZhtE-81" edge="1">
          <mxGeometry relative="1" as="geometry">
            <mxPoint x="1102" y="-331" as="targetPoint" />
          </mxGeometry>
        </mxCell>
        <mxCell id="zVWvyCh1IwH-hkvZZhtE-73" value="Blacklist" style="ellipse;whiteSpace=wrap;html=1;strokeColor=#FF0000;fontColor=#FF0000;" parent="1" vertex="1">
          <mxGeometry x="950" y="-300.5" width="88" height="53" as="geometry" />
        </mxCell>
        <mxCell id="zVWvyCh1IwH-hkvZZhtE-81" value="Black&lt;span style=&quot;background-color: light-dark(#ffffff, var(--ge-dark-color, #121212)); color: light-dark(rgb(255, 0, 0), rgb(255, 144, 144));&quot;&gt;list form&lt;/span&gt;" style="whiteSpace=wrap;html=1;strokeColor=#FF0000;fontColor=#FF0000;fillColor=#CDA2BE;labelBackgroundColor=default;" parent="1" vertex="1">
          <mxGeometry x="1042" y="-392" width="120" height="60" as="geometry" />
        </mxCell>
        <mxCell id="zVWvyCh1IwH-hkvZZhtE-82" value="list of people host has blacklisted" style="text;html=1;align=center;verticalAlign=middle;whiteSpace=wrap;rounded=0;fontColor=#FF0000;strokeColor=none;" parent="1" vertex="1">
          <mxGeometry x="906" y="584.5" width="101.5" height="60" as="geometry" />
        </mxCell>
        <mxCell id="zVWvyCh1IwH-hkvZZhtE-83" value="list of followers&amp;nbsp;" style="text;html=1;align=center;verticalAlign=middle;whiteSpace=wrap;rounded=0;fontColor=#FF0000;" parent="1" vertex="1">
          <mxGeometry x="1364" y="-133.75" width="60" height="30" as="geometry" />
        </mxCell>
        <mxCell id="zVWvyCh1IwH-hkvZZhtE-87" value="" style="edgeStyle=orthogonalEdgeStyle;rounded=0;orthogonalLoop=1;jettySize=auto;html=1;entryX=0;entryY=0.5;entryDx=0;entryDy=0;strokeColor=#FF0000;" parent="1" source="zVWvyCh1IwH-hkvZZhtE-84" target="zVWvyCh1IwH-hkvZZhtE-89" edge="1">
          <mxGeometry relative="1" as="geometry">
            <mxPoint x="992" y="488" as="targetPoint" />
          </mxGeometry>
        </mxCell>
        <mxCell id="zVWvyCh1IwH-hkvZZhtE-84" value="Add to blacklist button" style="ellipse;whiteSpace=wrap;html=1;strokeColor=#FF0000;fontColor=#FF0000;" parent="1" vertex="1">
          <mxGeometry x="816" y="461.5" width="104" height="53" as="geometry" />
        </mxCell>
        <mxCell id="zVWvyCh1IwH-hkvZZhtE-99" style="edgeStyle=orthogonalEdgeStyle;rounded=0;orthogonalLoop=1;jettySize=auto;html=1;exitX=0.5;exitY=0;exitDx=0;exitDy=0;entryX=0.5;entryY=1;entryDx=0;entryDy=0;strokeColor=#FF0000;" parent="1" source="zVWvyCh1IwH-hkvZZhtE-89" target="zVWvyCh1IwH-hkvZZhtE-98" edge="1">
          <mxGeometry relative="1" as="geometry" />
        </mxCell>
        <mxCell id="zVWvyCh1IwH-hkvZZhtE-89" value="Blacklist form" style="whiteSpace=wrap;html=1;strokeColor=#FF0000;fontColor=#FF0000;fillColor=#CDA2BE;labelBackgroundColor=default;" parent="1" vertex="1">
          <mxGeometry x="1023" y="458" width="120" height="60" as="geometry" />
        </mxCell>
        <mxCell id="zVWvyCh1IwH-hkvZZhtE-90" value="&lt;span style=&quot;color: rgb(255, 0, 0);&quot;&gt;Black list form&lt;/span&gt;" style="swimlane;fontStyle=0;childLayout=stackLayout;horizontal=1;startSize=30;horizontalStack=0;resizeParent=1;resizeParentMax=0;resizeLast=0;collapsible=1;marginBottom=0;whiteSpace=wrap;html=1;strokeColor=#FF0000;" parent="1" vertex="1">
          <mxGeometry x="1205" y="275" width="197" height="243" as="geometry" />
        </mxCell>
        <mxCell id="zVWvyCh1IwH-hkvZZhtE-91" value="&lt;b&gt;NotInput&lt;/b&gt;: Frat issuing the blacklist" style="text;strokeColor=none;fillColor=none;align=left;verticalAlign=middle;spacingLeft=4;spacingRight=4;overflow=hidden;points=[[0,0.5],[1,0.5]];portConstraint=eastwest;rotatable=0;whiteSpace=wrap;html=1;fontColor=#FF0000;" parent="zVWvyCh1IwH-hkvZZhtE-90" vertex="1">
          <mxGeometry y="30" width="197" height="30" as="geometry" />
        </mxCell>
        <mxCell id="zVWvyCh1IwH-hkvZZhtE-92" value="&lt;b&gt;NotInput&lt;/b&gt;: Date the blacklist is being issued" style="text;strokeColor=none;fillColor=none;align=left;verticalAlign=middle;spacingLeft=4;spacingRight=4;overflow=hidden;points=[[0,0.5],[1,0.5]];portConstraint=eastwest;rotatable=0;whiteSpace=wrap;html=1;fontColor=#FF0000;" parent="zVWvyCh1IwH-hkvZZhtE-90" vertex="1">
          <mxGeometry y="60" width="197" height="40" as="geometry" />
        </mxCell>
        <mxCell id="zVWvyCh1IwH-hkvZZhtE-93" value="User being blacklisted" style="text;strokeColor=none;fillColor=none;align=left;verticalAlign=middle;spacingLeft=4;spacingRight=4;overflow=hidden;points=[[0,0.5],[1,0.5]];portConstraint=eastwest;rotatable=0;whiteSpace=wrap;html=1;fontColor=#FF0000;" parent="zVWvyCh1IwH-hkvZZhtE-90" vertex="1">
          <mxGeometry y="100" width="197" height="40" as="geometry" />
        </mxCell>
        <mxCell id="zVWvyCh1IwH-hkvZZhtE-94" value="Event for which the user is being black listed (optional)" style="text;strokeColor=none;fillColor=none;align=left;verticalAlign=middle;spacingLeft=4;spacingRight=4;overflow=hidden;points=[[0,0.5],[1,0.5]];portConstraint=eastwest;rotatable=0;whiteSpace=wrap;html=1;fontColor=#FF0000;" parent="zVWvyCh1IwH-hkvZZhtE-90" vertex="1">
          <mxGeometry y="140" width="197" height="40" as="geometry" />
        </mxCell>
        <mxCell id="zVWvyCh1IwH-hkvZZhtE-95" value="Until when the user will be blacklisted&amp;nbsp;" style="text;strokeColor=none;fillColor=none;align=left;verticalAlign=middle;spacingLeft=4;spacingRight=4;overflow=hidden;points=[[0,0.5],[1,0.5]];portConstraint=eastwest;rotatable=0;whiteSpace=wrap;html=1;fontColor=#FF0000;" parent="zVWvyCh1IwH-hkvZZhtE-90" vertex="1">
          <mxGeometry y="180" width="197" height="33" as="geometry" />
        </mxCell>
        <mxCell id="zVWvyCh1IwH-hkvZZhtE-96" value="Reson for blacklist" style="text;strokeColor=none;fillColor=none;align=left;verticalAlign=middle;spacingLeft=4;spacingRight=4;overflow=hidden;points=[[0,0.5],[1,0.5]];portConstraint=eastwest;rotatable=0;whiteSpace=wrap;html=1;fontColor=#FF0000;" parent="zVWvyCh1IwH-hkvZZhtE-90" vertex="1">
          <mxGeometry y="213" width="197" height="30" as="geometry" />
        </mxCell>
        <mxCell id="zVWvyCh1IwH-hkvZZhtE-98" value="Add to black list&lt;div&gt;function&lt;/div&gt;" style="rhombus;whiteSpace=wrap;html=1;strokeColor=#FF0000;fontColor=#FF0000;" parent="1" vertex="1">
          <mxGeometry x="1011.5" y="322.5" width="143" height="68.5" as="geometry" />
        </mxCell>
        <mxCell id="zVWvyCh1IwH-hkvZZhtE-101" style="edgeStyle=orthogonalEdgeStyle;rounded=0;orthogonalLoop=1;jettySize=auto;html=1;exitX=1;exitY=0.5;exitDx=0;exitDy=0;entryX=-0.015;entryY=0.373;entryDx=0;entryDy=0;entryPerimeter=0;strokeColor=#FF0000;" parent="1" source="zVWvyCh1IwH-hkvZZhtE-89" target="zVWvyCh1IwH-hkvZZhtE-93" edge="1">
          <mxGeometry relative="1" as="geometry" />
        </mxCell>
        <mxCell id="zVWvyCh1IwH-hkvZZhtE-107" value="" style="edgeStyle=orthogonalEdgeStyle;rounded=0;orthogonalLoop=1;jettySize=auto;html=1;exitX=1.003;exitY=0.113;exitDx=0;exitDy=0;exitPerimeter=0;strokeColor=#FF0000;" parent="1" source="zVWvyCh1IwH-hkvZZhtE-102" target="zVWvyCh1IwH-hkvZZhtE-106" edge="1">
          <mxGeometry relative="1" as="geometry">
            <mxPoint x="1385" y="621" as="sourcePoint" />
            <Array as="points" />
          </mxGeometry>
        </mxCell>
        <mxCell id="zVWvyCh1IwH-hkvZZhtE-109" value="" style="edgeStyle=orthogonalEdgeStyle;rounded=0;orthogonalLoop=1;jettySize=auto;html=1;strokeColor=#FF0000;" parent="1" edge="1">
          <mxGeometry relative="1" as="geometry">
            <Array as="points">
              <mxPoint x="1355" y="673.34" />
              <mxPoint x="1355" y="673.34" />
            </Array>
            <mxPoint x="1331" y="673.2945454545451" as="sourcePoint" />
            <mxPoint x="1431.1109090909094" y="673.2945454545451" as="targetPoint" />
          </mxGeometry>
        </mxCell>
        <mxCell id="zVWvyCh1IwH-hkvZZhtE-102" value="Blacklist details" style="whiteSpace=wrap;html=1;fillColor=none;strokeColor=#FF0000;rounded=0;fontColor=#FF0000;" parent="1" vertex="1">
          <mxGeometry x="1211" y="614.5" width="120" height="60" as="geometry" />
        </mxCell>
        <mxCell id="zVWvyCh1IwH-hkvZZhtE-104" style="edgeStyle=orthogonalEdgeStyle;rounded=0;orthogonalLoop=1;jettySize=auto;html=1;exitX=0.5;exitY=0;exitDx=0;exitDy=0;entryX=0.457;entryY=1.138;entryDx=0;entryDy=0;entryPerimeter=0;fontColor=#FF0000;strokeColor=#FF0000;" parent="1" source="zVWvyCh1IwH-hkvZZhtE-102" target="zVWvyCh1IwH-hkvZZhtE-96" edge="1">
          <mxGeometry relative="1" as="geometry">
            <Array as="points">
              <mxPoint x="1271" y="566.5" />
              <mxPoint x="1295" y="566.5" />
            </Array>
          </mxGeometry>
        </mxCell>
        <mxCell id="zVWvyCh1IwH-hkvZZhtE-105" value="basically this info" style="edgeLabel;html=1;align=center;verticalAlign=middle;resizable=0;points=[];fontColor=#FF0000;" parent="zVWvyCh1IwH-hkvZZhtE-104" vertex="1" connectable="0">
          <mxGeometry x="-0.5266" relative="1" as="geometry">
            <mxPoint as="offset" />
          </mxGeometry>
        </mxCell>
        <mxCell id="zVWvyCh1IwH-hkvZZhtE-106" value="Remove from blacklist" style="rhombus;whiteSpace=wrap;html=1;fillColor=none;strokeColor=#FF0000;fontColor=#FF0000;rounded=0;" parent="1" vertex="1">
          <mxGeometry x="1484" y="586" width="113" height="69" as="geometry" />
        </mxCell>
        <mxCell id="zVWvyCh1IwH-hkvZZhtE-108" value="Change end time" style="rhombus;whiteSpace=wrap;html=1;fillColor=none;strokeColor=#FF0000;fontColor=#FF0000;rounded=0;" parent="1" vertex="1">
          <mxGeometry x="1431" y="648.5" width="122" height="50" as="geometry" />
        </mxCell>
        <mxCell id="zVWvyCh1IwH-hkvZZhtE-110" value="Create Event" style="swimlane;fontStyle=0;childLayout=stackLayout;horizontal=1;startSize=30;horizontalStack=0;resizeParent=1;resizeParentMax=0;resizeLast=0;collapsible=1;marginBottom=0;whiteSpace=wrap;html=1;" parent="1" vertex="1">
          <mxGeometry x="850" y="1314" width="161" height="308.5" as="geometry" />
        </mxCell>
        <mxCell id="zVWvyCh1IwH-hkvZZhtE-111" value="Title" style="text;strokeColor=none;fillColor=none;align=left;verticalAlign=middle;spacingLeft=4;spacingRight=4;overflow=hidden;points=[[0,0.5],[1,0.5]];portConstraint=eastwest;rotatable=0;whiteSpace=wrap;html=1;" parent="zVWvyCh1IwH-hkvZZhtE-110" vertex="1">
          <mxGeometry y="30" width="161" height="30" as="geometry" />
        </mxCell>
        <mxCell id="zVWvyCh1IwH-hkvZZhtE-118" value="Co-Host" style="text;strokeColor=none;fillColor=none;align=left;verticalAlign=middle;spacingLeft=4;spacingRight=4;overflow=hidden;points=[[0,0.5],[1,0.5]];portConstraint=eastwest;rotatable=0;whiteSpace=wrap;html=1;fontColor=#FF0000;" parent="zVWvyCh1IwH-hkvZZhtE-110" vertex="1">
          <mxGeometry y="60" width="161" height="30" as="geometry" />
        </mxCell>
        <mxCell id="zVWvyCh1IwH-hkvZZhtE-112" value="Description" style="text;strokeColor=none;fillColor=none;align=left;verticalAlign=middle;spacingLeft=4;spacingRight=4;overflow=hidden;points=[[0,0.5],[1,0.5]];portConstraint=eastwest;rotatable=0;whiteSpace=wrap;html=1;" parent="zVWvyCh1IwH-hkvZZhtE-110" vertex="1">
          <mxGeometry y="90" width="161" height="30" as="geometry" />
        </mxCell>
        <mxCell id="zVWvyCh1IwH-hkvZZhtE-114" value="Flyer" style="text;strokeColor=none;fillColor=none;align=left;verticalAlign=middle;spacingLeft=4;spacingRight=4;overflow=hidden;points=[[0,0.5],[1,0.5]];portConstraint=eastwest;rotatable=0;whiteSpace=wrap;html=1;" parent="zVWvyCh1IwH-hkvZZhtE-110" vertex="1">
          <mxGeometry y="120" width="161" height="30" as="geometry" />
        </mxCell>
        <mxCell id="zVWvyCh1IwH-hkvZZhtE-115" value="Location" style="text;strokeColor=none;fillColor=none;align=left;verticalAlign=middle;spacingLeft=4;spacingRight=4;overflow=hidden;points=[[0,0.5],[1,0.5]];portConstraint=eastwest;rotatable=0;whiteSpace=wrap;html=1;" parent="zVWvyCh1IwH-hkvZZhtE-110" vertex="1">
          <mxGeometry y="150" width="161" height="30" as="geometry" />
        </mxCell>
        <mxCell id="zVWvyCh1IwH-hkvZZhtE-113" value="Date&amp;amp;Time" style="text;strokeColor=none;fillColor=none;align=left;verticalAlign=middle;spacingLeft=4;spacingRight=4;overflow=hidden;points=[[0,0.5],[1,0.5]];portConstraint=eastwest;rotatable=0;whiteSpace=wrap;html=1;" parent="zVWvyCh1IwH-hkvZZhtE-110" vertex="1">
          <mxGeometry y="180" width="161" height="30" as="geometry" />
        </mxCell>
        <mxCell id="zVWvyCh1IwH-hkvZZhtE-116" value="Age restriction" style="text;strokeColor=none;fillColor=none;align=left;verticalAlign=middle;spacingLeft=4;spacingRight=4;overflow=hidden;points=[[0,0.5],[1,0.5]];portConstraint=eastwest;rotatable=0;whiteSpace=wrap;html=1;" parent="zVWvyCh1IwH-hkvZZhtE-110" vertex="1">
          <mxGeometry y="210" width="161" height="30" as="geometry" />
        </mxCell>
        <mxCell id="zVWvyCh1IwH-hkvZZhtE-117" value="Manage wristbands (button)" style="text;strokeColor=none;fillColor=none;align=left;verticalAlign=middle;spacingLeft=4;spacingRight=4;overflow=hidden;points=[[0,0.5],[1,0.5]];portConstraint=eastwest;rotatable=0;whiteSpace=wrap;html=1;" parent="zVWvyCh1IwH-hkvZZhtE-110" vertex="1">
          <mxGeometry y="240" width="161" height="30" as="geometry" />
        </mxCell>
        <mxCell id="zVWvyCh1IwH-hkvZZhtE-3" value="Post event" style="rhombus;whiteSpace=wrap;html=1;" parent="zVWvyCh1IwH-hkvZZhtE-110" vertex="1">
          <mxGeometry y="270" width="161" height="38.5" as="geometry" />
        </mxCell>
        <mxCell id="zVWvyCh1IwH-hkvZZhtE-122" style="edgeStyle=orthogonalEdgeStyle;rounded=0;orthogonalLoop=1;jettySize=auto;html=1;exitX=1;exitY=0.5;exitDx=0;exitDy=0;entryX=0.009;entryY=0.042;entryDx=0;entryDy=0;entryPerimeter=0;" parent="1" source="Fg7xQOFJATX9pM12aSYz-43" target="zVWvyCh1IwH-hkvZZhtE-110" edge="1">
          <mxGeometry relative="1" as="geometry" />
        </mxCell>
        <mxCell id="zVWvyCh1IwH-hkvZZhtE-131" style="edgeStyle=orthogonalEdgeStyle;rounded=0;orthogonalLoop=1;jettySize=auto;html=1;exitX=1;exitY=0.5;exitDx=0;exitDy=0;entryX=0;entryY=0.5;entryDx=0;entryDy=0;strokeColor=#FF00FF;" parent="1" source="zVWvyCh1IwH-hkvZZhtE-125" target="zVWvyCh1IwH-hkvZZhtE-128" edge="1">
          <mxGeometry relative="1" as="geometry" />
        </mxCell>
        <mxCell id="zVWvyCh1IwH-hkvZZhtE-125" value="&lt;span style=&quot;&quot;&gt;simpleUserCard&lt;/span&gt;" style="ellipse;whiteSpace=wrap;html=1;strokeColor=#FF00FF;rounded=0;fillColor=#97D077;fontColor=#FF00FF;" parent="1" vertex="1">
          <mxGeometry x="1070" y="1370" width="105" height="38" as="geometry" />
        </mxCell>
        <mxCell id="zVWvyCh1IwH-hkvZZhtE-126" style="edgeStyle=orthogonalEdgeStyle;rounded=0;orthogonalLoop=1;jettySize=auto;html=1;exitX=1;exitY=0.5;exitDx=0;exitDy=0;entryX=0;entryY=0.5;entryDx=0;entryDy=0;fontColor=#FF0000;strokeColor=#FF00FF;" parent="1" source="zVWvyCh1IwH-hkvZZhtE-118" target="zVWvyCh1IwH-hkvZZhtE-125" edge="1">
          <mxGeometry relative="1" as="geometry" />
        </mxCell>
        <mxCell id="zVWvyCh1IwH-hkvZZhtE-127" value="List of hosts" style="text;html=1;align=center;verticalAlign=middle;whiteSpace=wrap;rounded=0;fontColor=#FF00FF;" parent="1" vertex="1">
          <mxGeometry x="1041" y="1346" width="60" height="30" as="geometry" />
        </mxCell>
        <mxCell id="zVWvyCh1IwH-hkvZZhtE-130" value="" style="edgeStyle=orthogonalEdgeStyle;rounded=0;orthogonalLoop=1;jettySize=auto;html=1;strokeColor=#FF00FF;" parent="1" source="zVWvyCh1IwH-hkvZZhtE-128" target="zVWvyCh1IwH-hkvZZhtE-129" edge="1">
          <mxGeometry relative="1" as="geometry" />
        </mxCell>
        <mxCell id="zVWvyCh1IwH-hkvZZhtE-128" value="Confirmation pop-up" style="ellipse;whiteSpace=wrap;html=1;strokeColor=#FF00FF;fontColor=#FF00FF;" parent="1" vertex="1">
          <mxGeometry x="1243" y="1364.5" width="120" height="49" as="geometry" />
        </mxCell>
        <mxCell id="zVWvyCh1IwH-hkvZZhtE-129" value="Request to co-host" style="rhombus;whiteSpace=wrap;html=1;strokeColor=#FF00FF;fontColor=#FF00FF;" parent="1" vertex="1">
          <mxGeometry x="1463" y="1359.5" width="143" height="59" as="geometry" />
        </mxCell>
        <mxCell id="zVWvyCh1IwH-hkvZZhtE-132" value="&lt;b&gt;Legend&lt;/b&gt;:&lt;div&gt;- Color of lines and text:&lt;/div&gt;&lt;div&gt;&lt;span style=&quot;white-space: pre;&quot;&gt;&#x9;- Black: Started (not finished)&lt;/span&gt;&lt;br&gt;&lt;/div&gt;&lt;div&gt;&lt;span style=&quot;white-space: pre;&quot;&gt;&#x9;- &lt;span style=&quot;color: rgb(255, 0, 0);&quot;&gt;Red: Not done&lt;/span&gt;&lt;/span&gt;&lt;br&gt;&lt;/div&gt;&lt;div&gt;&lt;span style=&quot;white-space: pre;&quot;&gt;&#x9;- &lt;span style=&quot;color: rgb(255, 0, 255);&quot;&gt;Pink: Advanced (for the future)&lt;/span&gt;&lt;/span&gt;&lt;br&gt;&lt;/div&gt;&lt;div&gt;&lt;span style=&quot;white-space: pre;&quot;&gt;&lt;br&gt;&lt;/span&gt;&lt;/div&gt;&lt;div&gt;&lt;span style=&quot;white-space: pre;&quot;&gt;- Background color: refers to an element that is&amp;nbsp;&lt;/span&gt;&lt;/div&gt;&lt;div&gt;&lt;span style=&quot;white-space: pre;&quot;&gt;being reused &lt;/span&gt;&lt;/div&gt;" style="text;html=1;align=left;verticalAlign=top;whiteSpace=wrap;rounded=0;" parent="1" vertex="1">
          <mxGeometry x="-173" y="644.5" width="285" height="143" as="geometry" />
        </mxCell>
        <mxCell id="zVWvyCh1IwH-hkvZZhtE-133" value="Select in map" style="ellipse;whiteSpace=wrap;html=1;fontColor=#FF0000;strokeColor=#FF0000;" parent="1" vertex="1">
          <mxGeometry x="1073" y="1421" width="102" height="63" as="geometry" />
        </mxCell>
        <mxCell id="zVWvyCh1IwH-hkvZZhtE-134" style="edgeStyle=orthogonalEdgeStyle;rounded=0;orthogonalLoop=1;jettySize=auto;html=1;exitX=1;exitY=0.5;exitDx=0;exitDy=0;entryX=0;entryY=0.5;entryDx=0;entryDy=0;fontColor=#FF0000;strokeColor=#FF0000;" parent="1" source="zVWvyCh1IwH-hkvZZhtE-115" target="zVWvyCh1IwH-hkvZZhtE-133" edge="1">
          <mxGeometry relative="1" as="geometry" />
        </mxCell>
        <mxCell id="zVWvyCh1IwH-hkvZZhtE-143" value="" style="edgeStyle=orthogonalEdgeStyle;rounded=0;orthogonalLoop=1;jettySize=auto;html=1;strokeColor=#FF0000;" parent="1" target="zVWvyCh1IwH-hkvZZhtE-142" edge="1">
          <mxGeometry relative="1" as="geometry">
            <mxPoint x="1184" y="1535" as="sourcePoint" />
          </mxGeometry>
        </mxCell>
        <mxCell id="zVWvyCh1IwH-hkvZZhtE-150" value="" style="edgeStyle=orthogonalEdgeStyle;rounded=0;orthogonalLoop=1;jettySize=auto;html=1;strokeColor=#FF0000;" parent="1" source="zVWvyCh1IwH-hkvZZhtE-136" target="zVWvyCh1IwH-hkvZZhtE-149" edge="1">
          <mxGeometry relative="1" as="geometry" />
        </mxCell>
        <mxCell id="zVWvyCh1IwH-hkvZZhtE-136" value="Manage wristbands page" style="rounded=0;whiteSpace=wrap;html=1;strokeColor=#FF0000;fontColor=#FF0000;" parent="1" vertex="1">
          <mxGeometry x="1064" y="1528" width="120" height="60" as="geometry" />
        </mxCell>
        <mxCell id="zVWvyCh1IwH-hkvZZhtE-137" value="Create wristband" style="swimlane;fontStyle=0;childLayout=stackLayout;horizontal=1;startSize=30;horizontalStack=0;resizeParent=1;resizeParentMax=0;resizeLast=0;collapsible=1;marginBottom=0;whiteSpace=wrap;html=1;fontColor=#FF0000;strokeColor=#FF0000;" parent="1" vertex="1">
          <mxGeometry x="1375" y="1597.5" width="181" height="252" as="geometry" />
        </mxCell>
        <mxCell id="zVWvyCh1IwH-hkvZZhtE-138" value="Name of wristband" style="text;strokeColor=none;fillColor=none;align=left;verticalAlign=middle;spacingLeft=4;spacingRight=4;overflow=hidden;points=[[0,0.5],[1,0.5]];portConstraint=eastwest;rotatable=0;whiteSpace=wrap;html=1;fontColor=#FF0000;" parent="zVWvyCh1IwH-hkvZZhtE-137" vertex="1">
          <mxGeometry y="30" width="181" height="30" as="geometry" />
        </mxCell>
        <mxCell id="zVWvyCh1IwH-hkvZZhtE-139" value="Description of wristband" style="text;strokeColor=none;fillColor=none;align=left;verticalAlign=middle;spacingLeft=4;spacingRight=4;overflow=hidden;points=[[0,0.5],[1,0.5]];portConstraint=eastwest;rotatable=0;whiteSpace=wrap;html=1;fontColor=#FF0000;" parent="zVWvyCh1IwH-hkvZZhtE-137" vertex="1">
          <mxGeometry y="60" width="181" height="30" as="geometry" />
        </mxCell>
        <mxCell id="zVWvyCh1IwH-hkvZZhtE-140" value="Price of wristband" style="text;strokeColor=none;fillColor=none;align=left;verticalAlign=middle;spacingLeft=4;spacingRight=4;overflow=hidden;points=[[0,0.5],[1,0.5]];portConstraint=eastwest;rotatable=0;whiteSpace=wrap;html=1;fontColor=#FF0000;" parent="zVWvyCh1IwH-hkvZZhtE-137" vertex="1">
          <mxGeometry y="90" width="181" height="30" as="geometry" />
        </mxCell>
        <mxCell id="zVWvyCh1IwH-hkvZZhtE-153" value="Limit of tickets being sold" style="text;strokeColor=none;fillColor=none;align=left;verticalAlign=middle;spacingLeft=4;spacingRight=4;overflow=hidden;points=[[0,0.5],[1,0.5]];portConstraint=eastwest;rotatable=0;whiteSpace=wrap;html=1;fontColor=#FF0000;" parent="zVWvyCh1IwH-hkvZZhtE-137" vertex="1">
          <mxGeometry y="120" width="181" height="30" as="geometry" />
        </mxCell>
        <mxCell id="zVWvyCh1IwH-hkvZZhtE-151" value="Start and end of selling period" style="text;strokeColor=none;fillColor=none;align=left;verticalAlign=middle;spacingLeft=4;spacingRight=4;overflow=hidden;points=[[0,0.5],[1,0.5]];portConstraint=eastwest;rotatable=0;whiteSpace=wrap;html=1;fontColor=#FF00FF;" parent="zVWvyCh1IwH-hkvZZhtE-137" vertex="1">
          <mxGeometry y="150" width="181" height="30" as="geometry" />
        </mxCell>
        <mxCell id="zVWvyCh1IwH-hkvZZhtE-141" value="Choose a predetermined style" style="text;strokeColor=none;fillColor=none;align=left;verticalAlign=middle;spacingLeft=4;spacingRight=4;overflow=hidden;points=[[0,0.5],[1,0.5]];portConstraint=eastwest;rotatable=0;whiteSpace=wrap;html=1;fontColor=#FF0000;" parent="zVWvyCh1IwH-hkvZZhtE-137" vertex="1">
          <mxGeometry y="180" width="181" height="30" as="geometry" />
        </mxCell>
        <mxCell id="zVWvyCh1IwH-hkvZZhtE-152" value="Create wristband" style="rhombus;whiteSpace=wrap;html=1;fontColor=#FF0000;strokeColor=#000000;" parent="zVWvyCh1IwH-hkvZZhtE-137" vertex="1">
          <mxGeometry y="210" width="181" height="42" as="geometry" />
        </mxCell>
        <mxCell id="zVWvyCh1IwH-hkvZZhtE-142" value="Wristband" style="ellipse;whiteSpace=wrap;html=1;rounded=0;fillColor=#FFFF00;strokeColor=#FF0000;fontColor=#FF0000;" parent="1" vertex="1">
          <mxGeometry x="1284" y="1513" width="80" height="44" as="geometry" />
        </mxCell>
        <mxCell id="zVWvyCh1IwH-hkvZZhtE-144" value="List of created wristbands for event" style="text;html=1;align=center;verticalAlign=middle;whiteSpace=wrap;rounded=0;fontColor=#FF0000;" parent="1" vertex="1">
          <mxGeometry x="1228" y="1469" width="74" height="51" as="geometry" />
        </mxCell>
        <mxCell id="zVWvyCh1IwH-hkvZZhtE-146" value="Delete wristband" style="rhombus;whiteSpace=wrap;html=1;fontColor=#FF3333;strokeColor=#FF0000;" parent="1" vertex="1">
          <mxGeometry x="1586" y="-631" width="134" height="58" as="geometry" />
        </mxCell>
        <mxCell id="zVWvyCh1IwH-hkvZZhtE-149" value="Create wristband&lt;div&gt;(button)&lt;/div&gt;" style="ellipse;whiteSpace=wrap;html=1;rounded=0;strokeColor=#FF0000;fontColor=#FF0000;" parent="1" vertex="1">
          <mxGeometry x="1071.5" y="1666" width="105" height="52" as="geometry" />
        </mxCell>
        <mxCell id="zVWvyCh1IwH-hkvZZhtE-155" style="edgeStyle=orthogonalEdgeStyle;rounded=0;orthogonalLoop=1;jettySize=auto;html=1;exitX=1;exitY=0.5;exitDx=0;exitDy=0;entryX=0.006;entryY=0.682;entryDx=0;entryDy=0;entryPerimeter=0;strokeColor=#FF0000;" parent="1" source="zVWvyCh1IwH-hkvZZhtE-117" target="zVWvyCh1IwH-hkvZZhtE-136" edge="1">
          <mxGeometry relative="1" as="geometry" />
        </mxCell>
        <mxCell id="lHXLa5IbPs3UxYePCbIo-3" style="edgeStyle=orthogonalEdgeStyle;rounded=0;orthogonalLoop=1;jettySize=auto;html=1;exitX=1;exitY=0.5;exitDx=0;exitDy=0;entryX=-0.001;entryY=0.067;entryDx=0;entryDy=0;entryPerimeter=0;strokeColor=#FF0000;" parent="1" source="zVWvyCh1IwH-hkvZZhtE-149" target="zVWvyCh1IwH-hkvZZhtE-137" edge="1">
          <mxGeometry relative="1" as="geometry" />
        </mxCell>
        <mxCell id="lHXLa5IbPs3UxYePCbIo-5" value="" style="shape=curlyBracket;whiteSpace=wrap;html=1;rounded=1;labelPosition=left;verticalLabelPosition=middle;align=right;verticalAlign=middle;" parent="1" vertex="1">
          <mxGeometry x="699.7500000000001" y="1871" width="20" height="316" as="geometry" />
        </mxCell>
        <mxCell id="lHXLa5IbPs3UxYePCbIo-6" value="isNotHost" style="text;html=1;align=center;verticalAlign=middle;resizable=0;points=[];autosize=1;strokeColor=none;fillColor=none;" parent="1" vertex="1">
          <mxGeometry x="629.7500000000001" y="2016" width="70" height="26" as="geometry" />
        </mxCell>
        <mxCell id="lHXLa5IbPs3UxYePCbIo-9" style="edgeStyle=orthogonalEdgeStyle;rounded=0;orthogonalLoop=1;jettySize=auto;html=1;exitX=1;exitY=0.5;exitDx=0;exitDy=0;" parent="1" source="lHXLa5IbPs3UxYePCbIo-7" target="lHXLa5IbPs3UxYePCbIo-8" edge="1">
          <mxGeometry relative="1" as="geometry" />
        </mxCell>
        <mxCell id="lHXLa5IbPs3UxYePCbIo-7" value="yourEvents&lt;div&gt;(future)&lt;/div&gt;" style="rounded=0;whiteSpace=wrap;html=1;" parent="1" vertex="1">
          <mxGeometry x="719.7500000000001" y="1918.0100000000002" width="106" height="44" as="geometry" />
        </mxCell>
        <mxCell id="lHXLa5IbPs3UxYePCbIo-8" value="eventCard" style="ellipse;whiteSpace=wrap;html=1;fillColor=#ffe6cc;strokeColor=#d79b00;" parent="1" vertex="1">
          <mxGeometry x="909.5000000000001" y="1921.88" width="80" height="36.25" as="geometry" />
        </mxCell>
        <mxCell id="lHXLa5IbPs3UxYePCbIo-10" value="List of events the user has bought a ticket to" style="text;html=1;align=center;verticalAlign=middle;whiteSpace=wrap;rounded=0;" parent="1" vertex="1">
          <mxGeometry x="862.7500000000001" y="1862" width="77" height="76" as="geometry" />
        </mxCell>
        <mxCell id="kimw8rgIVEwlr4Ktqzji-16" style="edgeStyle=orthogonalEdgeStyle;rounded=0;orthogonalLoop=1;jettySize=auto;html=1;exitX=1;exitY=0.5;exitDx=0;exitDy=0;strokeColor=#FF0000;" parent="1" source="kimw8rgIVEwlr4Ktqzji-1" target="kimw8rgIVEwlr4Ktqzji-15" edge="1">
          <mxGeometry relative="1" as="geometry" />
        </mxCell>
        <mxCell id="kimw8rgIVEwlr4Ktqzji-1" value="SmallEventCard" style="ellipse;whiteSpace=wrap;html=1;strokeColor=#FF0000;fontColor=#FF0000;" parent="1" vertex="1">
          <mxGeometry x="902.0000000000001" y="2048" width="163" height="46" as="geometry" />
        </mxCell>
        <mxCell id="kimw8rgIVEwlr4Ktqzji-3" value="Horizontal list of events the user has attended" style="text;html=1;align=center;verticalAlign=middle;whiteSpace=wrap;rounded=0;fontColor=#FF0000;" parent="1" vertex="1">
          <mxGeometry x="839.7500000000001" y="2000" width="134" height="67" as="geometry" />
        </mxCell>
        <mxCell id="kimw8rgIVEwlr4Ktqzji-6" value="&lt;span style=&quot;color: rgb(255, 0, 0);&quot;&gt;simpleUserCard&lt;/span&gt;" style="ellipse;whiteSpace=wrap;html=1;strokeColor=#FF0000;rounded=0;fillColor=#97D077;" parent="1" vertex="1">
          <mxGeometry x="931.7500000000001" y="2141" width="106" height="38" as="geometry" />
        </mxCell>
        <mxCell id="kimw8rgIVEwlr4Ktqzji-8" value="List of users that have attended the event" style="text;html=1;align=center;verticalAlign=middle;whiteSpace=wrap;rounded=0;fontColor=#FF0000;" parent="1" vertex="1">
          <mxGeometry x="859.7500000000001" y="2104" width="94" height="56" as="geometry" />
        </mxCell>
        <mxCell id="kimw8rgIVEwlr4Ktqzji-12" value="" style="edgeStyle=orthogonalEdgeStyle;rounded=0;orthogonalLoop=1;jettySize=auto;html=1;entryX=1;entryY=0.5;entryDx=0;entryDy=0;strokeColor=#FF0000;exitX=1;exitY=0.5;exitDx=0;exitDy=0;" parent="1" source="kimw8rgIVEwlr4Ktqzji-6" target="kimw8rgIVEwlr4Ktqzji-14" edge="1">
          <mxGeometry relative="1" as="geometry">
            <mxPoint x="1233" y="2158.62" as="targetPoint" />
            <mxPoint x="1049" y="2160" as="sourcePoint" />
          </mxGeometry>
        </mxCell>
        <mxCell id="kimw8rgIVEwlr4Ktqzji-13" value="&lt;span style=&quot;caret-color: rgb(255, 0, 0); color: rgb(255, 0, 0);&quot;&gt;action = profile&lt;/span&gt;" style="edgeLabel;html=1;align=center;verticalAlign=middle;resizable=0;points=[];" parent="kimw8rgIVEwlr4Ktqzji-12" vertex="1" connectable="0">
          <mxGeometry x="-0.2782" relative="1" as="geometry">
            <mxPoint x="14" as="offset" />
          </mxGeometry>
        </mxCell>
        <mxCell id="kimw8rgIVEwlr4Ktqzji-14" value="Profile&lt;div&gt;(of selected follower)&lt;/div&gt;" style="whiteSpace=wrap;html=1;fillColor=#dae8fc;strokeColor=#6c8ebf;direction=west;" parent="1" vertex="1">
          <mxGeometry x="1218" y="2135.25" width="78" height="49.5" as="geometry" />
        </mxCell>
        <mxCell id="kimw8rgIVEwlr4Ktqzji-15" value="Event Details" style="whiteSpace=wrap;html=1;" parent="1" vertex="1">
          <mxGeometry x="1121" y="2050.75" width="89" height="40.5" as="geometry" />
        </mxCell>
        <mxCell id="ZIhOdMBr0xCIAdMKxZGc-6" value="" style="edgeStyle=orthogonalEdgeStyle;rounded=0;orthogonalLoop=1;jettySize=auto;html=1;strokeColor=#FF0000;fontColor=#FF0000;exitX=0.987;exitY=0.896;exitDx=0;exitDy=0;exitPerimeter=0;" edge="1" parent="1" source="Fg7xQOFJATX9pM12aSYz-35" target="ZIhOdMBr0xCIAdMKxZGc-5">
          <mxGeometry relative="1" as="geometry">
            <mxPoint x="1235" y="-15" as="sourcePoint" />
          </mxGeometry>
        </mxCell>
        <mxCell id="ZIhOdMBr0xCIAdMKxZGc-5" value="Amplified picture" style="whiteSpace=wrap;html=1;strokeColor=#FF0000;fontColor=#FF0000;" vertex="1" parent="1">
          <mxGeometry x="1456" y="-33" width="120" height="36" as="geometry" />
        </mxCell>
        <mxCell id="ZIhOdMBr0xCIAdMKxZGc-7" value="Applified picture elements&lt;div&gt;(instagram styled but full page)&lt;/div&gt;" style="swimlane;fontStyle=0;childLayout=stackLayout;horizontal=1;startSize=43;horizontalStack=0;resizeParent=1;resizeParentMax=0;resizeLast=0;collapsible=1;marginBottom=0;whiteSpace=wrap;html=1;strokeColor=#FF0000;fontColor=#FF0000;" vertex="1" parent="1">
          <mxGeometry x="1610" y="32" width="200" height="193" as="geometry" />
        </mxCell>
        <mxCell id="ZIhOdMBr0xCIAdMKxZGc-8" value="Caption" style="text;strokeColor=none;fillColor=none;align=left;verticalAlign=middle;spacingLeft=4;spacingRight=4;overflow=hidden;points=[[0,0.5],[1,0.5]];portConstraint=eastwest;rotatable=0;whiteSpace=wrap;html=1;fontColor=#FF0000;" vertex="1" parent="ZIhOdMBr0xCIAdMKxZGc-7">
          <mxGeometry y="43" width="200" height="30" as="geometry" />
        </mxCell>
        <mxCell id="ZIhOdMBr0xCIAdMKxZGc-9" value="Event" style="text;strokeColor=none;fillColor=none;align=left;verticalAlign=middle;spacingLeft=4;spacingRight=4;overflow=hidden;points=[[0,0.5],[1,0.5]];portConstraint=eastwest;rotatable=0;whiteSpace=wrap;html=1;fontColor=#FF0000;" vertex="1" parent="ZIhOdMBr0xCIAdMKxZGc-7">
          <mxGeometry y="73" width="200" height="30" as="geometry" />
        </mxCell>
        <mxCell id="ZIhOdMBr0xCIAdMKxZGc-10" value="Tags" style="text;strokeColor=none;fillColor=none;align=left;verticalAlign=middle;spacingLeft=4;spacingRight=4;overflow=hidden;points=[[0,0.5],[1,0.5]];portConstraint=eastwest;rotatable=0;whiteSpace=wrap;html=1;fontColor=#FF0000;" vertex="1" parent="ZIhOdMBr0xCIAdMKxZGc-7">
          <mxGeometry y="103" width="200" height="30" as="geometry" />
        </mxCell>
        <mxCell id="ZIhOdMBr0xCIAdMKxZGc-12" value="Like" style="text;strokeColor=none;fillColor=none;align=left;verticalAlign=middle;spacingLeft=4;spacingRight=4;overflow=hidden;points=[[0,0.5],[1,0.5]];portConstraint=eastwest;rotatable=0;whiteSpace=wrap;html=1;fontColor=#FF0000;" vertex="1" parent="ZIhOdMBr0xCIAdMKxZGc-7">
          <mxGeometry y="133" width="200" height="30" as="geometry" />
        </mxCell>
        <mxCell id="ZIhOdMBr0xCIAdMKxZGc-37" value="Delete (if owner)" style="text;strokeColor=none;fillColor=none;align=left;verticalAlign=middle;spacingLeft=4;spacingRight=4;overflow=hidden;points=[[0,0.5],[1,0.5]];portConstraint=eastwest;rotatable=0;whiteSpace=wrap;html=1;fontColor=#FF0000;" vertex="1" parent="ZIhOdMBr0xCIAdMKxZGc-7">
          <mxGeometry y="163" width="200" height="30" as="geometry" />
        </mxCell>
        <mxCell id="ZIhOdMBr0xCIAdMKxZGc-11" style="edgeStyle=orthogonalEdgeStyle;rounded=0;orthogonalLoop=1;jettySize=auto;html=1;exitX=0.5;exitY=1;exitDx=0;exitDy=0;entryX=0.001;entryY=0.161;entryDx=0;entryDy=0;entryPerimeter=0;strokeColor=#FF0000;fontColor=#FF0000;" edge="1" parent="1" source="ZIhOdMBr0xCIAdMKxZGc-5" target="ZIhOdMBr0xCIAdMKxZGc-7">
          <mxGeometry relative="1" as="geometry" />
        </mxCell>
        <mxCell id="ZIhOdMBr0xCIAdMKxZGc-15" value="Create post" style="rounded=0;whiteSpace=wrap;html=1;strokeColor=#FF0000;fontColor=#FF0000;" vertex="1" parent="1">
          <mxGeometry x="731" y="19" width="82" height="37" as="geometry" />
        </mxCell>
        <mxCell id="ZIhOdMBr0xCIAdMKxZGc-19" value="Create post page" style="swimlane;fontStyle=0;childLayout=stackLayout;horizontal=1;startSize=30;horizontalStack=0;resizeParent=1;resizeParentMax=0;resizeLast=0;collapsible=1;marginBottom=0;whiteSpace=wrap;html=1;strokeColor=#FF0000;fontColor=#FF0000;" vertex="1" parent="1">
          <mxGeometry x="701" y="83" width="140" height="179" as="geometry" />
        </mxCell>
        <mxCell id="ZIhOdMBr0xCIAdMKxZGc-21" value="Add event" style="text;strokeColor=none;fillColor=none;align=left;verticalAlign=middle;spacingLeft=4;spacingRight=4;overflow=hidden;points=[[0,0.5],[1,0.5]];portConstraint=eastwest;rotatable=0;whiteSpace=wrap;html=1;fontColor=#FF0000;" vertex="1" parent="ZIhOdMBr0xCIAdMKxZGc-19">
          <mxGeometry y="30" width="140" height="30" as="geometry" />
        </mxCell>
        <mxCell id="ZIhOdMBr0xCIAdMKxZGc-25" value="Tag people" style="text;strokeColor=none;fillColor=none;align=left;verticalAlign=middle;spacingLeft=4;spacingRight=4;overflow=hidden;points=[[0,0.5],[1,0.5]];portConstraint=eastwest;rotatable=0;whiteSpace=wrap;html=1;fontColor=#FF0000;" vertex="1" parent="ZIhOdMBr0xCIAdMKxZGc-19">
          <mxGeometry y="60" width="140" height="30" as="geometry" />
        </mxCell>
        <mxCell id="ZIhOdMBr0xCIAdMKxZGc-38" value="Add picture" style="text;strokeColor=none;fillColor=none;align=left;verticalAlign=middle;spacingLeft=4;spacingRight=4;overflow=hidden;points=[[0,0.5],[1,0.5]];portConstraint=eastwest;rotatable=0;whiteSpace=wrap;html=1;fontColor=#FF0000;" vertex="1" parent="ZIhOdMBr0xCIAdMKxZGc-19">
          <mxGeometry y="90" width="140" height="30" as="geometry" />
        </mxCell>
        <mxCell id="ZIhOdMBr0xCIAdMKxZGc-23" value="Caption" style="text;strokeColor=none;fillColor=none;align=left;verticalAlign=middle;spacingLeft=4;spacingRight=4;overflow=hidden;points=[[0,0.5],[1,0.5]];portConstraint=eastwest;rotatable=0;whiteSpace=wrap;html=1;fontColor=#FF0000;" vertex="1" parent="ZIhOdMBr0xCIAdMKxZGc-19">
          <mxGeometry y="120" width="140" height="30" as="geometry" />
        </mxCell>
        <mxCell id="ZIhOdMBr0xCIAdMKxZGc-32" value="Post" style="rhombus;whiteSpace=wrap;html=1;strokeColor=#FF0000;fontColor=#FF0000;" vertex="1" parent="ZIhOdMBr0xCIAdMKxZGc-19">
          <mxGeometry y="150" width="140" height="29" as="geometry" />
        </mxCell>
        <mxCell id="ZIhOdMBr0xCIAdMKxZGc-26" value="Modal bottom sheet searcher" style="ellipse;whiteSpace=wrap;html=1;strokeColor=#FF0000;fontColor=#FF0000;" vertex="1" parent="1">
          <mxGeometry x="1041" y="113" width="139.5" height="59" as="geometry" />
        </mxCell>
        <mxCell id="ZIhOdMBr0xCIAdMKxZGc-27" style="edgeStyle=orthogonalEdgeStyle;rounded=0;orthogonalLoop=1;jettySize=auto;html=1;exitX=1;exitY=0.5;exitDx=0;exitDy=0;entryX=0;entryY=0.5;entryDx=0;entryDy=0;strokeColor=#FF0000;fontColor=#FF0000;" edge="1" parent="1" source="ZIhOdMBr0xCIAdMKxZGc-21" target="ZIhOdMBr0xCIAdMKxZGc-26">
          <mxGeometry relative="1" as="geometry">
            <Array as="points">
              <mxPoint x="981" y="128" />
              <mxPoint x="981" y="142" />
            </Array>
          </mxGeometry>
        </mxCell>
        <mxCell id="ZIhOdMBr0xCIAdMKxZGc-29" value="search = event" style="edgeLabel;html=1;align=center;verticalAlign=middle;resizable=0;points=[];fontColor=#FF0000;" vertex="1" connectable="0" parent="ZIhOdMBr0xCIAdMKxZGc-27">
          <mxGeometry x="-0.5409" y="2" relative="1" as="geometry">
            <mxPoint x="19" y="2" as="offset" />
          </mxGeometry>
        </mxCell>
        <mxCell id="ZIhOdMBr0xCIAdMKxZGc-28" style="edgeStyle=orthogonalEdgeStyle;rounded=0;orthogonalLoop=1;jettySize=auto;html=1;exitX=1;exitY=0.5;exitDx=0;exitDy=0;entryX=0;entryY=0.5;entryDx=0;entryDy=0;strokeColor=#FF0000;fontColor=#FF0000;" edge="1" parent="1" source="ZIhOdMBr0xCIAdMKxZGc-25" target="ZIhOdMBr0xCIAdMKxZGc-26">
          <mxGeometry relative="1" as="geometry">
            <Array as="points">
              <mxPoint x="981" y="158" />
              <mxPoint x="981" y="143" />
            </Array>
          </mxGeometry>
        </mxCell>
        <mxCell id="ZIhOdMBr0xCIAdMKxZGc-30" value="search = users" style="edgeLabel;html=1;align=center;verticalAlign=middle;resizable=0;points=[];fontColor=#FF0000;" vertex="1" connectable="0" parent="ZIhOdMBr0xCIAdMKxZGc-28">
          <mxGeometry x="-0.4082" relative="1" as="geometry">
            <mxPoint x="7" as="offset" />
          </mxGeometry>
        </mxCell>
        <mxCell id="ZIhOdMBr0xCIAdMKxZGc-33" style="edgeStyle=orthogonalEdgeStyle;rounded=0;orthogonalLoop=1;jettySize=auto;html=1;exitX=0.5;exitY=1;exitDx=0;exitDy=0;entryX=0.516;entryY=0.007;entryDx=0;entryDy=0;entryPerimeter=0;fontColor=#FF0000;strokeColor=#FF0000;" edge="1" parent="1" source="ZIhOdMBr0xCIAdMKxZGc-15" target="ZIhOdMBr0xCIAdMKxZGc-19">
          <mxGeometry relative="1" as="geometry" />
        </mxCell>
        <mxCell id="ZIhOdMBr0xCIAdMKxZGc-35" value="&lt;span style=&quot;font-family: Helvetica; font-style: normal; font-variant-ligatures: normal; font-variant-caps: normal; font-weight: 400; letter-spacing: normal; orphans: 2; text-align: center; text-indent: 0px; text-transform: none; widows: 2; word-spacing: 0px; -webkit-text-stroke-width: 0px; white-space: nowrap; background-color: rgb(255, 255, 255); text-decoration-thickness: initial; text-decoration-style: initial; text-decoration-color: initial; float: none; display: inline !important;&quot;&gt;Missing chats and missing&lt;/span&gt;&lt;div&gt;&lt;span style=&quot;font-family: Helvetica; font-style: normal; font-variant-ligatures: normal; font-variant-caps: normal; font-weight: 400; letter-spacing: normal; orphans: 2; text-align: center; text-indent: 0px; text-transform: none; widows: 2; word-spacing: 0px; -webkit-text-stroke-width: 0px; white-space: nowrap; background-color: rgb(255, 255, 255); text-decoration-thickness: initial; text-decoration-style: initial; text-decoration-color: initial; float: none; display: inline !important;&quot;&gt;page of getting paid of host&lt;/span&gt;&lt;/div&gt;" style="text;whiteSpace=wrap;html=1;fontSize=17;fontColor=#FF00FF;" vertex="1" parent="1">
          <mxGeometry x="144.5" y="677.75" width="223.5" height="55.75" as="geometry" />
        </mxCell>
      </root>
    </mxGraphModel>
  </diagram>
</mxfile>
